<?xml version="1.0" standalone="no"?>
<!DOCTYPE svg PUBLIC "-//W3C//DTD SVG 1.1//EN" "http://www.w3.org/Graphics/SVG/1.1/DTD/svg11.dtd" >
<svg xmlns="http://www.w3.org/2000/svg">
<metadata>Generated by IcoMoon</metadata>
<defs>
<font id="PxIcon" horiz-adv-x="512">
<font-face units-per-em="512" ascent="480" descent="-32" />
<missing-glyph horiz-adv-x="512" />
<glyph unicode="&#x20;" horiz-adv-x="256" d="" />
<glyph unicode="&#xe000;" glyph-name="Watch2" d="M437.015 405.010c-48.352 48.356-112.635 74.99-181.015 74.99-68.384 0-132.663-26.634-181.015-74.99-48.351-48.347-74.985-112.63-74.985-181.014 0-68.375 26.634-132.66 74.985-181.015 48.352-48.346 112.631-74.981 181.015-74.981 68.38 0 132.663 26.635 181.015 74.98 48.351 48.356 74.985 112.641 74.985 181.016 0 68.384-26.634 132.667-74.985 181.014zM256-9.908c-128.981 0-233.908 104.932-233.908 233.904 0 128.981 104.927 233.912 233.908 233.912s233.908-104.931 233.908-233.912c0-128.973-104.927-233.904-233.908-233.904zM306.45 340.092l-19.923 9.534-54.295-113.459c-5.111 1.138-11.505 2.24-17.083 2.24-4.489 0-8.158-0.697-11.191-2.125-13.211-6.209-18.891-22.013-12.678-35.232 4.343-9.227 13.753-15.197 23.957-15.197 3.912 0 7.704 0.848 11.262 2.523 7.342 3.457 13.6 13.141 17.96 21.766l82.111-24.525 6.319 21.156-78.954 23.583 52.515 109.736zM216.882 208.262c-0.534-0.221-1.085-0.326-1.645-0.326-1.697 0-3.258 0.988-3.981 2.523-0.992 2.107-0.154 4.629 1.878 5.732 0.251 0.043 0.886 0.131 2.015 0.131 2.086 0 4.568-0.281 7.068-0.695-2.093-3.582-4.078-6.395-5.335-7.365zM256 425.479c-111.1 0-201.479-90.379-201.479-201.475 0-111.104 90.379-201.484 201.479-201.484 111.096 0 201.479 90.381 201.479 201.485 0 111.095-90.383 201.474-201.479 201.474zM280.61 43.396l-1.509 38.283h-46.195l-1.517-38.283c-80.855 10.961-145.028 75.121-155.999 155.977l38.69 1.525v46.204l-38.69 1.525c10.971 80.837 75.126 144.997 155.963 155.977l1.543-39.069h46.204l1.544 39.069c80.837-10.971 145.001-75.131 155.964-155.977l-38.69-1.525v-46.204l38.69-1.525c-10.962-80.855-75.148-145.023-155.998-155.977z" />
<glyph unicode="&#xe001;" glyph-name="Watch" d="M437.015 405.010c-48.352 48.356-112.635 74.99-181.015 74.99-68.384 0-132.663-26.634-181.015-74.99-48.351-48.347-74.985-112.63-74.985-181.014 0-68.375 26.634-132.66 74.985-181.015 48.352-48.346 112.631-74.981 181.015-74.981 68.38 0 132.663 26.635 181.015 74.98 48.351 48.356 74.985 112.641 74.985 181.016 0 68.384-26.634 132.667-74.985 181.014zM256-9.908c-128.981 0-233.908 104.932-233.908 233.904 0 128.981 104.927 233.912 233.908 233.912s233.908-104.931 233.908-233.912c0-128.973-104.927-233.904-233.908-233.904zM306.45 340.092l-19.923 9.534-54.295-113.459c-5.111 1.138-11.505 2.24-17.083 2.24-4.489 0-8.158-0.697-11.191-2.125-13.211-6.209-18.891-22.013-12.678-35.232 4.343-9.227 13.753-15.197 23.957-15.197 3.912 0 7.704 0.848 11.262 2.523 7.342 3.457 13.6 13.141 17.96 21.766l82.111-24.525 6.319 21.156-78.954 23.583 52.515 109.736zM216.882 208.262c-0.534-0.221-1.085-0.326-1.645-0.326-1.697 0-3.258 0.988-3.981 2.523-0.992 2.107-0.154 4.629 1.878 5.732 0.251 0.043 0.886 0.131 2.015 0.131 2.086 0 4.568-0.281 7.068-0.695-2.093-3.582-4.078-6.395-5.335-7.365zM256 425.479c-111.1 0-201.479-90.379-201.479-201.475 0-111.104 90.379-201.484 201.479-201.484 111.096 0 201.479 90.381 201.479 201.485 0 111.095-90.383 201.474-201.479 201.474zM280.61 43.396l-1.509 38.283h-46.195l-1.517-38.283c-80.855 10.961-145.028 75.121-155.999 155.977l38.69 1.525v46.204l-38.69 1.525c10.971 80.837 75.126 144.997 155.963 155.977l1.543-39.069h46.204l1.544 39.069c80.837-10.971 145.001-75.131 155.964-155.977l-38.69-1.525v-46.204l38.69-1.525c-10.962-80.855-75.148-145.023-155.998-155.977z" />
<glyph unicode="&#xe002;" glyph-name="Warning-box" d="M278.739 155.287c0-0.239-0.029-0.478-0.029-0.747 0-18.203-7.309-25.437-21.925-37.063-14.571 11.627-21.917 18.86-21.917 37.063 0 0.27 0 0.508-0.030 0.747l-15.177 171.307c0.194 20.146 16.783 36.45 37.168 36.45 20.354 0 36.944-16.305 37.123-36.45l-15.213-171.307zM273.21 48.191c-4.408-4.305-10.088-6.665-15.999-6.665h-0.762c-5.925 0-11.634 2.36-16.020 6.665-3.707 3.737-5.209 8.221-5.178 15.483 0 14.676 9.691 23.135 21.506 32.251 10.76-8.638 21.655-18.442 21.655-32.281 0.028-7.232-1.466-11.747-5.202-15.453zM502.137 76.049l-217.718 348.867c-1.524 2.183-3.482 4.185-5.426 6.008-5.574 5.142-12.322 8.579-18.554 9.596-0.255 0-0.531 0.119-0.777 0.209-0.262 0-0.396 0-0.643 0.060-0.776 0.060-1.562 0.119-2.466 0.119-0.919 0-1.831-0.060-2.735-0.119h-0.127c-0.657-0.060-1.435-0.149-2.204-0.269-0.27 0-0.53 0-0.643-0.12-0.254-0.060-0.53-0.060-0.657-0.12-5.829-1.195-11.396-3.945-16.477-8.697-2.070-1.884-3.894-4.095-5.836-6.666l-5.32-8.548-212.51-340.32c-10.223-12.853-12.965-29.022-6.732-44.058 6.104-15.064 20.751-24.898 36.958-24.898h431.769c16.096 0 30.741 9.834 36.853 24.898 2.064 4.932 3.109 10.192 3.109 15.453-0.001 10.372-2.855 20.027-9.864 28.605z" />
<glyph unicode="&#xe003;" glyph-name="View360" d="M249.98 244.326c-5.298 4.954-12.671 7.429-22.111 7.429-7.772 0-14.474-2.020-20.112-6.051 1.14 7.080 3.504 12.391 7.093 15.933 3.58 3.538 8.896 5.315 15.988 5.315 4.566 0 9.371-0.621 14.389-1.841l3.665 13.028c-2.363 0.689-5.204 1.271-8.521 1.777-3.309 0.498-6.71 0.74-10.214 0.74-26.652 0-39.987-16.448-39.987-49.351 0-12.714 2.789-22.301 8.394-28.735 5.596-6.438 14.491-9.657 26.678-9.657 7.085 0 13.080 1.297 17.995 3.883 4.898 2.594 8.59 6.157 11.022 10.686s3.646 9.771 3.646 15.711c0 9.142-2.643 16.18-7.925 21.133zM237.521 210.854c-2.865-2.964-7.066-4.452-12.637-4.452-6.693 0-11.396 1.951-14.092 5.885-2.713 3.911-4.065 9.953-4.065 18.104v0.106c2.203 2.211 4.771 4.091 7.662 5.66 2.892 1.561 6.396 2.343 10.495 2.343 5.646 0 9.882-1.412 12.688-4.222 2.823-2.823 4.234-6.629 4.234-11.426 0.002-5.034-1.435-9.030-4.285-11.998zM337.549 269.746c-6.48 7.42-16.124 11.141-28.915 11.141s-22.435-3.721-28.897-11.141c-6.48-7.429-9.712-18.374-9.712-32.839 0-14.475 3.231-25.427 9.712-32.847 6.463-7.429 16.107-11.146 28.897-11.146s22.435 3.717 28.915 11.146c6.463 7.42 9.703 18.372 9.703 32.847 0 14.465-3.24 25.41-9.703 32.839zM325.141 214.047c-3.461-4.787-8.964-7.194-16.507-7.194s-13.046 2.407-16.507 7.194c-3.47 4.801-5.204 12.429-5.204 22.859 0 10.435 1.734 18.055 5.204 22.842 3.461 4.796 8.964 7.203 16.507 7.203s13.046-2.407 16.507-7.203c3.461-4.788 5.196-12.408 5.196-22.842 0-10.43-1.735-18.058-5.196-22.859zM399.588 271.289c-1.795 2.968-4.21 5.319-7.255 7.024-3.062 1.709-6.369 2.573-9.95 2.573-3.571 0-6.888-0.863-9.933-2.573-3.045-1.705-5.468-4.057-7.254-7.024-1.795-2.972-2.679-6.212-2.679-9.712s0.884-6.74 2.679-9.708c1.786-2.972 4.209-5.315 7.254-7.029 3.045-1.718 6.361-2.56 9.933-2.56 3.581 0 6.889 0.842 9.95 2.56 3.045 1.713 5.46 4.057 7.255 7.029 1.785 2.968 2.679 6.208 2.679 9.708s-0.894 6.74-2.679 9.712zM388.498 255.352c-1.701-1.709-3.751-2.568-6.115-2.568-2.355 0-4.396 0.859-6.098 2.568-1.718 1.713-2.567 3.789-2.567 6.225s0.85 4.512 2.567 6.225c1.701 1.718 3.742 2.573 6.098 2.573 2.364 0 4.414-0.855 6.115-2.573 1.718-1.713 2.576-3.789 2.576-6.225s-0.858-4.512-2.576-6.225zM156.289 210.051c-3.121-2.283-7.994-3.423-14.628-3.423-4.643 0-8.998 0.565-13.071 1.718-4.074 1.14-8.13 2.695-12.17 4.686l-5.026-12.803c8.53-4.878 18.692-7.314 30.513-7.314 11.345 0 20.122 2.496 26.321 7.488 6.2 4.988 9.321 11.851 9.321 20.622 0 4.346-0.995 8.164-2.977 11.477-1.981 3.308-4.72 6-8.224 8.054 5.782 3.657 8.683 9.1 8.683 16.336 0 7.386-2.883 13.229-8.632 17.541-5.749 4.303-14.023 6.455-24.841 6.455-10.817 0-20.376-2.326-28.676-6.969l5.715-11.991c3.878 1.595 7.62 2.866 11.243 3.814 3.623 0.957 7.526 1.437 11.719 1.437 6.098 0 10.426-0.931 13.029-2.807 2.585-1.862 3.869-4.282 3.869-7.254 0-4.031-1.463-6.723-4.388-8.054-2.942-1.322-7.671-1.994-14.228-1.994h-9.584v-13.254l13.692 0.115c5.715 0.068 9.984-1.046 12.808-3.363 2.806-2.326 4.218-5.511 4.218-9.542 0-5.028-1.557-8.683-4.686-10.975zM511.394 286.014c-0.106 0.658-0.278 1.289-0.486 1.899l0.019 0.006c-10.563 33.562-28.106 63.77-52.14 89.792-39.13 42.34-91.108 68.554-147.874 74.916-52.060 22.428-109.807 24.242-163.451 4.94-55.934-20.125-100.709-60.775-126.068-114.455-25.36-53.705-28.277-114.009-8.19-169.821 16.417-45.637 46.605-83.794 86.451-109.986 2.712-3.265 5.513-6.474 8.415-9.614 46.654-50.49 110.53-76.539 174.949-76.539 49.096 0 98.515 15.134 140.814 46.119l-13.76 18.794c-72.334-52.975-167.647-54.592-240.514-9.269 42.151-10.356 86.444-8.13 128.241 6.909 26.363 9.482 50.337 23.553 71.249 41.841 2.432 2.118 3.869 5.154 3.979 8.377s-1.131 6.34-3.401 8.623l-33.49 33.499 126.646 13.037-3.818-152.84 23.293-0.582 4.142 166.076c0.085 3.342-1.284 6.565-3.733 8.84-2.458 2.271-5.774 3.381-9.1 3.032l-164.167-16.89c-4.465-0.459-8.274-3.457-9.78-7.688s-0.442-8.951 2.738-12.132l41.714-41.73c-16.328-12.565-34.493-22.478-54.164-29.549-60.393-21.731-124.503-12.454-174.781 19.564-32.336 40.364-48.839 90.473-46.704 142.727 2.338 57.434 26.916 110.569 69.182 149.629 42.275 39.047 97.171 59.347 154.616 57.145 4.251-0.162 8.475-0.461 12.674-0.866 0.918-0.415 1.839-0.822 2.753-1.251 48.117-22.583 84.516-62.528 102.485-112.47 5.238-14.551 8.768-29.65 10.503-44.873l0.014 0.001c1.97-12.067 8.578-22.646 18.585-29.8 7.926-5.66 17.222-8.619 26.764-8.619 2.475 0 4.975 0.2 7.467 0.6 12.093 1.96 22.697 8.517 29.858 18.454 7.168 9.938 10.042 22.070 8.070 34.154zM121.804 390.643c-46.842-43.27-74.064-102.15-76.667-165.783-1.255-30.802 3.349-60.931 13.312-89.127-9.503 13.774-17.404 28.972-23.33 45.438-37.096 103.125 16.839 217.283 120.235 254.476 23.565 8.481 48.017 12.412 72.317 11.846-39.147-9.438-75.463-28.756-105.867-56.85zM484.435 265.48c-3.529-4.886-8.742-8.117-14.704-9.074-5.979-0.974-12.008 0.446-16.966 3.98-4.928 3.512-8.165 8.714-9.138 14.621-1.976 16.617-5.86 33.090-11.578 48.97-12.058 33.518-31.546 62.994-56.828 86.667 24.785-11.618 47.325-28.034 66.455-48.738 21.525-23.299 37.27-50.321 46.809-80.316 0.744-5.715-0.667-11.407-4.050-16.11z" />
<glyph unicode="&#xe004;" glyph-name="Video" d="M469.514 84.8c-0.016-0.235-0.021-0.469-0.021-0.702 0-27.556-22.379-49.975-49.889-49.975l-360.658-0.144c-5.108 0-9.265 4.187-9.265 9.331 0 0.469-0.029 0.937-0.087 1.401l-26.69 212.322c-5.076 55.419 32.299 66.269 49.020 68.349l6.789 0.386 24.25-239.561h311.709l11.098 261.040h-327.219l-1.417 17.382c-1.104 14.845 2.223 26.559 9.886 34.814 12.36 13.313 32.289 14.348 38.103 14.348 25.138 0 332.071 0.226 335.161 0.228 5.014 0 9.105-4.014 9.256-9.006l-20.026-320.213zM405.393 327.72l-9.436-221.984h-275.344l-22.469 221.984h307.249zM480.275 436.476c-3.098-0.002-310.024-0.228-335.153-0.228-10.396 0-36.522-2.097-54.56-21.525-12.086-13.018-17.409-30.432-15.816-51.837l1.205-14.78-5.665-0.323c-0.231-0.014-0.463-0.034-0.694-0.061-20.413-2.439-38.374-11.385-50.571-25.19-14.657-16.59-21.042-40.021-18.462-67.756 0.012-0.12 0.025-0.24 0.040-0.359l26.635-211.882c0.414-17.17 14.48-31.011 31.712-31.011l360.662 0.144c39.768 0 72.143 32.294 72.34 72.066l20.031 320.296c0.014 0.233 0.021 0.467 0.021 0.7 0 17.505-14.227 31.746-31.725 31.746zM229.264 257.257c0.495 2.256 2.080 4.174 4.276 5.078 2.658 1.111 5.522 0.646 7.778-1.203l51.703-39.033c0.496-0.319 0.854-0.663 1.211-1.039 0.832-0.917 1.352-1.894 1.539-2.928 0.025-0.033 0.025-0.096 0.025-0.124 0.023-0.045 0.023-0.104 0.023-0.104 0-0.149 0-0.269 0.035-0.403v-0.016c0-0.198 0.027-0.359 0.027-0.514-0.027-0.136-0.027-0.271-0.063-0.402v-0.243c-0.184-1.127-0.816-2.373-1.707-3.364-0.32-0.313-0.68-0.694-1.092-0.963l-51.703-39.003c-1.503-1.235-3.208-1.772-5.064-1.772-0.903 0-1.871 0.208-2.714 0.537-2.196 0.903-3.781 2.861-4.276 5.135v80.361zM255.279 144.162c40.262 0 72.898 32.638 72.898 72.897 0 40.268-32.637 72.905-72.898 72.905-40.267 0-72.9-32.638-72.9-72.905 0-40.259 32.634-72.897 72.9-72.897z" />
<glyph unicode="&#xe005;" glyph-name="Validation-box" d="M255.987 480c-141.147 0-255.987-114.861-255.987-256s114.84-256 255.987-256c141.172 0 256.013 114.86 256.013 256s-114.841 256-256.013 256zM135.618 267.728l84.211-84.154 146.544 146.536c11.659 11.685 32.097 11.685 43.782 0 5.843-5.843 9.065-13.624 9.065-21.877 0-8.305-3.223-16.061-9.065-21.929l-168.474-168.414c-1.048-1.074-2.149-2.017-3.302-2.882-5.397-4.034-11.791-6.183-18.603-6.183-8.228 0-16.035 3.248-21.878 9.064l-106.036 106.059c-5.869 5.816-9.065 13.624-9.065 21.903 0 8.253 3.196 16.035 9.065 21.877 5.817 5.843 13.625 9.065 21.904 9.065s16.035-3.223 21.852-9.065z" />
<glyph unicode="&#xe006;" glyph-name="Usage2" d="M310.919 265.4l175.858-0.314c-5.689 49.7-27.987 97.896-60.948 130.859-30.941 30.967-71.367 51.728-114.947 59.261l0.037-189.806zM225.42 416.478c-5.901-0.32-11.794-0.884-17.619-1.687-46.238-6.374-88.171-27.258-121.267-60.395-40.211-40.159-62.35-93.583-62.35-150.443 0-56.946 22.139-110.415 62.337-150.562 40.224-40.206 93.647-62.348 150.432-62.348 56.774 0 110.202 22.142 150.44 62.346 33.805 33.806 55.691 80.68 61.076 130.118l-149.063-0.569c-3.047 0-5.971 1.207-8.131 3.358-2.17 2.16-3.389 5.098-3.391 8.161l-0.008 47.939-51.416 0.091c-3.059 0.006-5.988 1.228-8.145 3.395-2.159 2.167-3.367 5.103-3.357 8.161l0.462 162.435zM236.954-32c-62.938 0-122.146 24.536-166.72 69.089-44.555 44.496-69.094 103.757-69.094 166.864 0 63.022 24.539 122.237 69.098 166.738 36.671 36.715 83.155 59.862 134.416 66.928 10.666 1.471 21.533 2.217 32.3 2.217 3.062 0 6.008-1.219 8.172-3.387 2.161-2.168 3.382-5.106 3.374-8.168l-0.463-162.769 39.837-0.071-0.039 203.034c-0.002 3.278 1.396 6.402 3.84 8.588s5.699 3.231 8.961 2.864c53.609-5.986 103.857-30.026 141.494-67.69 20.553-20.557 37.089-45.549 49.146-74.28 11.139-26.544 17.906-55.501 19.568-83.742 0.186-3.171-0.945-6.277-3.127-8.588-2.176-2.304-5.207-3.609-8.375-3.609h-0.020l-188.401 0.338 0.008-36.33 149.99 0.574c3.16 0.014 6.205-1.282 8.391-3.579 2.185-2.296 3.327-5.392 3.159-8.557-3.169-59.468-28.239-116.829-68.784-157.374-44.594-44.555-103.805-69.090-166.731-69.090z" />
<glyph unicode="&#xe007;" glyph-name="Usage" d="M310.917 265.4l175.86-0.314c-5.691 49.7-27.989 97.896-60.948 130.859-30.943 30.967-71.369 51.728-114.947 59.261l0.035-189.806zM225.42 416.478c-5.902-0.32-11.794-0.884-17.619-1.687-46.238-6.374-88.171-27.258-121.267-60.395-40.211-40.159-62.35-93.583-62.35-150.443 0-56.946 22.139-110.415 62.337-150.562 40.224-40.206 93.647-62.348 150.432-62.348 56.774 0 110.2 22.142 150.44 62.346 33.805 33.806 55.691 80.68 61.074 130.118l-149.061-0.569c-3.049 0-5.973 1.207-8.131 3.358-2.17 2.16-3.391 5.098-3.391 8.161l-0.010 47.939-51.414 0.091c-3.058 0.006-5.988 1.227-8.145 3.395-2.159 2.167-3.366 5.103-3.357 8.161l0.462 162.435zM236.954-32c-62.938 0-122.146 24.536-166.72 69.089-44.554 44.496-69.094 103.757-69.094 166.864 0 63.022 24.54 122.237 69.098 166.738 36.671 36.715 83.155 59.862 134.416 66.928 10.666 1.471 21.533 2.217 32.3 2.217 3.061 0 6.008-1.219 8.172-3.387 2.161-2.168 3.382-5.106 3.374-8.168l-0.462-162.768 39.837-0.072-0.041 203.034c0 3.278 1.396 6.402 3.84 8.588s5.701 3.231 8.963 2.864c53.607-5.986 103.857-30.026 141.492-67.69 20.553-20.557 37.089-45.549 49.146-74.28 11.141-26.544 17.908-55.501 19.57-83.741 0.186-3.171-0.945-6.277-3.127-8.588-2.178-2.304-5.207-3.61-8.377-3.61h-0.018l-188.401 0.338 0.006-36.33 149.99 0.574c3.16 0.014 6.205-1.282 8.391-3.579 2.185-2.296 3.327-5.392 3.159-8.557-3.167-59.468-28.237-116.829-68.782-157.374-44.597-44.555-103.808-69.090-166.732-69.090z" />
<glyph unicode="&#xe008;" glyph-name="Trash" d="M186.886 41.444l20.276 0.527-4.765 183.276-20.276-0.527 4.765-183.276zM248.042 41.671l20.282 0.076-0.68 183.274-20.283-0.074 0.681-183.276zM329.348 41.521l3.402 183.276-20.279 0.375-3.4-183.275 20.277-0.376zM458.074 332.154l-0.203-32.023c0-1.576-2.291-3.403-5.246-3.403h-16.674c-15.723 0-26.855-10.054-28.365-25.609l-0.025-0.259-14.326-275.556-0.016-0.605c0-1.56-2.305-3.373-5.273-3.373h-263.364c-2.946 0-5.149 1.78-5.149 3.373l-16.696 281.236h285.418l2.939 56.634 0.014 0.527c0 13.882-12.129 25.176-27.041 25.176h-223.599c-32.61 0-59.141-24.323-59.141-54.217l0.431-7.326h-22.748c-2.908 0-5.082 1.776-5.082 3.364v63.561c0 17.607 16.792 31.931 37.434 31.931l118.193-0.001v19.693c0 22.828 21.072 41.398 46.973 41.398 25.988 0 47.133-18.57 47.133-41.398v-19.696l116.817 0.001c20.732 0 37.598-14.323 37.598-31.931v-31.497zM101.609 304.333c0.173 18.584 17.539 33.655 38.858 33.655h223.599c3.582 0 6.623-2.144 6.756-4.719l-1.924-37.053h-266.804l-0.485 8.117zM481.4 332.080v31.572c0 30.467-27.33 55.254-60.924 55.254l-93.602-0.002c-2.056 34.009-32.823 61.096-70.347 61.096-37.438 0-68.137-27.087-70.188-61.096l-94.978 0.002c-33.503 0-60.758-24.787-60.758-55.254v-63.561c0-14.715 12.744-26.689 28.406-26.689h20.512l16.591-279.104c0.228-14.537 12.912-26.299 28.47-26.299h263.363c15.643 0 28.395 11.788 28.594 26.35l14.285 274.75c0.342 3.169 1.223 4.303 5.127 4.303h16.674c15.754 0 28.57 11.991 28.57 26.651l0.205 32.027z" />
<glyph unicode="&#xe009;" glyph-name="Transfer" d="M500.967 235.27l-116.027 116.625c-1.252 1.217-2.575 2.337-3.941 3.342-6.605 5.010-14.42 7.665-22.604 7.665-20.779 0-37.694-16.986-37.694-37.861 0-8.847 2.929-17.128 8.449-23.944l0.193-0.247c0.724-0.794 2.223-2.443 2.223-2.443l51.433-51.989h-53.135c-0.046 0.237-0.082 0.478-0.133 0.714-1.182 5.75-3.749 11.236-7.427 15.884l-0.67 0.82c-0.388 0.449-0.775 0.873-1.146 1.278-0.3 0.335-0.608 0.67-0.908 0.979-0.389 0.414-0.75 0.731-0.997 0.943l-0.043 0.044c-0.468 0.459-1.032 1.006-1.685 1.57l-0.283 0.211c-0.123 0.106-0.264 0.194-0.388 0.273-5.636 4.507-12.347 7.259-19.455 7.973l-0.142 0.009c-1.111 0.089-2.363 0.194-3.722 0.194h-163.874l49.3 49.882h0.053l1.953 1.976c7.086 7.161 10.998 16.65 10.998 26.74 0 20.875-16.88 37.861-37.632 37.861-4.044 0-8.083-0.68-12.012-2.011-5.525-1.835-10.438-4.868-14.601-9.040l-116.030-116.467c-7.109-7.196-11.020-16.722-11.020-26.811 0-10.107 3.929-19.601 11.037-26.709l116.031-116.627c1.243-1.217 2.57-2.328 3.938-3.334 6.602-5.009 14.411-7.673 22.604-7.673 20.779 0 37.686 16.985 37.686 37.871 0 8.836-2.915 17.126-8.444 23.936l-0.198 0.246c-0.715 0.794-2.224 2.452-2.224 2.452l-51.43 51.999h53.136c0.045-0.24 0.082-0.484 0.133-0.724 1.187-5.75 3.749-11.236 7.427-15.875l0.666-0.829c0.396-0.458 0.775-0.882 1.146-1.287 0.308-0.335 0.617-0.671 0.912-0.97 0.389-0.424 0.75-0.741 1.006-0.953l0.035-0.035c0.468-0.459 1.027-1.006 1.688-1.57l0.278-0.211c0.128-0.106 0.265-0.194 0.388-0.283 5.636-4.497 12.348-7.248 19.455-7.972h0.146c1.107-0.089 2.364-0.194 3.718-0.194h163.876l-49.3-49.882h-0.053l-1.95-1.976c-7.090-7.162-11.006-16.65-11.006-26.74 0-20.885 16.88-37.87 37.641-37.87 4.039 0 8.078 0.688 12.012 2.011 5.521 1.835 10.433 4.868 14.604 9.049l116.027 116.468c7.108 7.196 11.016 16.721 11.016 26.811-0.001 10.107-3.927 19.591-11.034 26.701zM108.345 203.542l62.344-63.024c0.304-0.335 1.318-1.446 1.923-2.117 3.51-4.392 5.371-9.719 5.371-15.433 0-13.53-10.937-24.554-24.373-24.554-5.265 0-10.313 1.729-14.587 4.992l-0.105 0.070c-0.868 0.635-1.725 1.358-2.531 2.135l-115.922 116.522c-4.604 4.608-7.144 10.764-7.144 17.308 0 6.579 2.549 12.779 7.152 17.444l115.997 116.432c2.681 2.681 5.843 4.63 9.393 5.803l0.070 0.026c2.54 0.874 5.137 1.314 7.73 1.314 13.409 0 24.319-11.016 24.319-24.553 0-6.076-2.175-11.818-6.165-16.333l-74.695-75.583h195.744c0.803 0 1.676-0.062 2.603-0.141 4.586-0.468 8.933-2.293 12.584-5.257l0.213-0.168c0.087-0.079 0.193-0.141 0.281-0.202 0.221-0.212 0.467-0.449 0.724-0.706l0.775-0.723c0.203-0.203 0.406-0.432 0.618-0.662l0.070-0.069c0.282-0.318 0.572-0.636 0.891-0.988l0.203-0.282c2.016-2.524 3.468-5.343 4.359-8.378h-97.055c-11.263 0-21.854-5.054-29.042-13.82-4.202-5.071-6.968-11.197-8.064-17.695h-85.032l11.351-11.358zM316.366 233.1c-0.893-3.374-2.492-6.53-4.724-9.221-4.683-5.697-11.509-8.978-18.776-8.978h-97.236c0.894 3.378 2.496 6.542 4.726 9.242 4.68 5.692 11.519 8.956 18.777 8.956h97.233zM491.53 191.124l-115.992-116.433c-2.689-2.681-5.855-4.639-9.401-5.803l-0.070-0.036c-2.54-0.864-5.133-1.305-7.726-1.305-13.414 0-24.323 11.023-24.323 24.553 0 6.067 2.169 11.817 6.173 16.334l74.691 75.581h-195.749c-0.803 0-1.672 0.053-2.602 0.141-4.587 0.477-8.939 2.293-12.576 5.257l-0.221 0.176c-0.089 0.071-0.189 0.124-0.278 0.194-0.225 0.212-0.472 0.459-0.724 0.706l-0.784 0.722c-0.198 0.213-0.405 0.424-0.613 0.653l-0.066 0.070c-0.286 0.318-0.577 0.653-0.89 1.006l-0.212 0.265c-2.016 2.542-3.468 5.363-4.355 8.396h97.055c11.263 0 21.854 5.044 29.042 13.811 4.2 5.062 6.967 11.189 8.064 17.688h85.032l-11.351 11.368-62.335 63.014c-0.317 0.335-1.323 1.446-1.932 2.126-3.51 4.383-5.37 9.728-5.37 15.434 0 13.537 10.936 24.553 24.377 24.553 5.255 0 10.31-1.729 14.587-4.983l0.105-0.070c0.864-0.644 1.728-1.367 2.522-2.152l115.922-116.523c4.612-4.599 7.144-10.755 7.144-17.299 0-6.579-2.54-12.788-7.144-17.444z" />
<glyph unicode="&#xe00a;" glyph-name="Tools" d="M476.664 3.318c-16.328-16.334-42.896-16.334-59.221 0.002l-212.964 213.030c-12.148 12.152-22.236 25.815-30.099 40.561 10.127 5.438 19.512 12.391 27.868 20.75 8.41 8.413 15.397 17.865 20.847 28.068 14.761-7.871 28.44-17.972 40.603-30.139l212.966-213.034c7.908-7.91 12.264-18.43 12.264-29.619s-4.354-21.708-12.264-29.619zM118.465 266.027c-25.487 0-49.448 9.929-67.47 27.956-18.932 18.937-28.817 44.884-27.863 71.117l36.094-36.105c2.163-2.164 5.098-3.38 8.157-3.38h64.336c1.138-19.467 5.14-38.387 11.804-56.276-8.068-2.182-16.476-3.312-25.058-3.312zM154.85 325.236c16.273-1.118 32.097-4.521 47.107-10.041-4.271-7.685-9.637-14.824-16.024-21.212-6.336-6.34-13.411-11.673-21.024-15.929-5.531 15.033-8.94 30.882-10.059 47.182zM115.125 456.86c1.112 0.040 2.225 0.059 3.338 0.059 25.487 0 49.448-9.928 67.469-27.954 18.023-18.027 27.948-41.997 27.948-67.491 0-8.515-1.112-16.856-3.258-24.867-17.853 6.643-36.731 10.633-56.154 11.768v64.353c0 3.061-1.217 5.996-3.38 8.16l-35.963 35.972zM492.979 78.877l-212.963 213.034c-14.353 14.354-30.562 26.171-48.079 35.249 3.304 10.986 5.017 22.519 5.017 34.313 0 31.66-12.326 61.425-34.705 83.813-22.38 22.387-52.135 34.714-83.786 34.714-10.338 0-20.635-1.347-30.603-4.003-3.149-0.839-5.8-2.976-7.29-5.875-2.294-4.46-1.443-9.892 2.102-13.438l48.723-48.736v-59.251h-59.233l-48.721 48.737c-0.052 0.052-0.104 0.104-0.157 0.154l-0.090 0.087c-2.941 2.831-7.156 3.897-11.089 2.805-3.93-1.092-6.992-4.18-8.054-8.121-10.986-40.858 0.75-84.808 30.628-114.697 22.381-22.386 52.136-34.716 83.786-34.716 11.866 0 23.467 1.733 34.512 5.081 9.068-17.485 20.862-33.666 35.187-47.995l212.963-213.033c12.662-12.668 29.291-19 45.926-18.998 16.631 0 33.266 6.332 45.926 18.996 12.268 12.271 19.023 28.588 19.023 45.941 0 17.355-6.758 33.669-19.023 45.939z" />
<glyph unicode="&#xe00b;" glyph-name="Tips2" d="M476.635 3.355c-7.9-7.899-18.404-12.248-29.578-12.248-11.172 0-21.678 4.35-29.578 12.248l-212.859 212.784c-12.202 12.195-22.363 25.952-30.309 40.999 10.127 5.43 19.512 12.381 27.868 20.732 8.392 8.39 15.25 17.738 20.593 27.692 15.046-7.94 28.801-18.096 41.001-30.292l212.859-212.783c7.902-7.897 12.254-18.398 12.254-29.567s-4.351-21.668-12.251-29.565zM118.422 266.298h-0.008c-25.458 0-49.396 9.913-67.402 27.911-18.815 18.808-28.694 44.572-27.85 70.642l35.881-35.869c2.168-2.166 5.107-3.383 8.173-3.383l65.806-0.001c1.126-19.122 5.058-37.75 11.734-55.631-8.455-2.414-17.298-3.669-26.334-3.669zM114.85 456.826c1.19 0.044 2.382 0.067 3.575 0.067 25.464 0 49.404-9.913 67.409-27.909 25.384-25.376 33.418-61.618 24.131-93.887-17.894 6.684-36.541 10.62-55.687 11.748l-0.002 65.785c0 3.064-1.217 6.002-3.385 8.169l-36.041 36.027zM163.382 277.51c-5.857 15.848-9.312 32.353-10.31 49.289 16.953-0.997 33.468-4.45 49.32-10.308-4.299-8.008-9.808-15.533-16.559-22.283-6.729-6.727-14.291-12.324-22.451-16.698zM492.979 78.826l-212.86 212.783c-14.354 14.349-30.62 26.206-48.452 35.364 12.32 40.514 2.495 86.374-29.488 118.348-22.371 22.364-52.116 34.679-83.754 34.679-10.431 0-20.816-1.371-30.866-4.073-3.962-1.066-7.063-4.152-8.146-8.109-1.082-3.956 0.014-8.19 2.883-11.123l0.087-0.090c0.031-0.032 0.061-0.063 0.092-0.094l48.685-48.667 0.002-59.14-59.159 0.001-48.686 48.67c-3.553 3.549-8.994 4.398-13.46 2.104-2.905-1.494-5.042-4.146-5.883-7.301-10.853-40.734 0.908-84.533 30.693-114.307 22.374-22.365 52.112-34.68 83.747-34.68h0.011c11.848 0.001 23.431 1.729 34.46 5.064 9.164-17.836 21.030-34.104 35.39-48.456l212.858-212.783c12.267-12.263 28.576-19.016 45.924-19.016s33.658 6.753 45.924 19.016 19.021 28.564 19.021 45.904c0 17.341-6.758 33.643-19.023 45.906z" />
<glyph unicode="&#xe00c;" glyph-name="Tips1" d="M476.663 3.318c-16.327-16.334-42.896-16.334-59.221 0.002l-212.963 213.030c-12.148 12.153-22.236 25.816-30.099 40.561 10.127 5.438 19.512 12.391 27.868 20.75 8.41 8.413 15.397 17.865 20.847 28.068 14.761-7.871 28.44-17.972 40.603-30.139l212.965-213.034c7.909-7.91 12.265-18.43 12.265-29.619s-4.355-21.708-12.265-29.619zM118.465 266.027c-25.487 0-49.448 9.929-67.47 27.956-18.932 18.937-28.817 44.884-27.863 71.117l36.094-36.105c2.163-2.164 5.098-3.38 8.157-3.38h64.336c1.138-19.467 5.14-38.387 11.804-56.276-8.068-2.182-16.476-3.312-25.058-3.312zM154.85 325.236c16.273-1.118 32.097-4.521 47.107-10.041-4.271-7.685-9.637-14.824-16.024-21.212-6.336-6.34-13.411-11.673-21.024-15.929-5.531 15.032-8.94 30.881-10.059 47.182zM115.125 456.86c1.112 0.040 2.225 0.059 3.338 0.059 25.487 0 49.448-9.928 67.469-27.954 18.023-18.027 27.948-41.997 27.948-67.491 0-8.515-1.112-16.856-3.258-24.867-17.853 6.643-36.731 10.633-56.154 11.768v64.352c0 3.061-1.217 5.996-3.38 8.16l-35.963 35.973zM492.978 78.877l-212.963 213.034c-14.351 14.354-30.561 26.171-48.078 35.249 3.304 10.986 5.017 22.519 5.017 34.313 0 31.66-12.326 61.425-34.705 83.813-22.38 22.386-52.135 34.714-83.786 34.714-10.338 0-20.635-1.347-30.603-4.003-3.149-0.839-5.8-2.976-7.29-5.875-2.294-4.46-1.443-9.892 2.102-13.438l48.723-48.736v-59.251h-59.233l-48.721 48.736c-0.052 0.052-0.104 0.104-0.157 0.154l-0.090 0.087c-2.941 2.831-7.156 3.897-11.089 2.805-3.93-1.092-6.992-4.18-8.054-8.121-10.986-40.858 0.75-84.808 30.628-114.697 22.381-22.386 52.136-34.716 83.786-34.716 11.866 0 23.467 1.733 34.512 5.081 9.068-17.485 20.862-33.667 35.187-47.995l212.962-213.033c12.663-12.668 29.292-19 45.927-18.998 16.631 0 33.265 6.332 45.926 18.996 12.267 12.271 19.023 28.588 19.022 45.941 0 17.356-6.757 33.67-19.023 45.94z" />
<glyph unicode="&#xe00d;" glyph-name="Television" d="M77.887 32.425h351.913v-19.006h-351.913v19.006zM490.252 434.62l-404.394-0.133c-24.569 0-43.096-19.775-43.096-45.999l0.195-4.328h-0.003l0.040-0.854c-11.067-2.16-21.064-7.675-28.803-16.020-9.961-10.739-14.966-24.86-14.093-39.778l14.512-242.017c0.17-12.047 9.858-21.794 21.74-21.794l408.369 0.079c25.607 0.014 47.646 20.822 49.129 46.367l18.135 302.164 0.017 0.57c0 11.989-9.754 21.743-21.748 21.743zM474.877 111.263c-0.896-15.431-14.711-28.473-30.164-28.481l-408.363-0.080c-1.407 0-2.737 1.513-2.737 3.112v0.284l-14.543 242.535c-0.567 9.686 2.649 18.823 9.054 25.73 4.313 4.649 9.74 7.925 15.778 9.624l11.747-250.020h393.921l15.354 270.473-402.952-0.092-0.204 4.351c0.086 15.781 9.968 26.784 24.093 26.784l404.395 0.133c1.449 0 2.639-1.13 2.732-2.555l-18.111-301.798zM62.865 365.343l381.944 0.088-13.195-232.458h-357.831l-10.918 232.37zM162.879 283.404h30.028v-84.519h19.294v84.519h30.029v16.031h-79.351zM294.941 223.347l-29.349 76.088h-20.652l40.494-100.55h18.884l40.491 100.55h-20.653z" />
<glyph unicode="&#xe00e;" glyph-name="Telephony" d="M319.554-29.374c-0.003 0-0.003 0-0.004 0-60.272 0-111.554 24.494-117.054 27.21-4.19 1.759-24.086 11.348-28.979 36.522-4.932 25.375-18.032 92.778-18.033 189.459 0-0.004 0-0.004 0-0.004 0 0.004 0 0.004 0 0.004 0 96.684 13.101 164.082 18.033 189.455 4.892 25.173 24.786 34.761 28.978 36.521 5.494 2.713 56.773 27.207 117.046 27.207 0.004 0 0.006 0 0.010 0 17.179 0 26.426-7.721 31.16-14.198 18.040-24.688 2.456-73.555-7.856-105.892l-1.272-3.993c-4.462-14.059-16.529-17.851-19.298-18.547-1.774-0.478-17.33-4.596-35.229-6.798-4.494-0.553-8.742-0.939-12.75-1.159-3.219-26.106-6.131-59.681-6.132-102.6s2.912-76.496 6.132-102.602c4.008-0.22 8.255-0.607 12.75-1.159 17.872-2.199 33.408-6.309 35.22-6.798 2.767-0.693 14.846-4.479 19.308-18.546l1.268-3.983c10.314-32.341 25.901-81.215 7.859-105.905-4.733-6.474-13.981-14.194-31.157-14.194zM210.821 18.023c0.445-0.154 0.666-0.263 1.104-0.484 0.491-0.247 50.533-25.072 107.626-25.072 0.001 0 0.003 0 0.003 0 8.689 0 11.879 2.991 13.523 5.241 11.499 15.734-3.72 63.451-11.033 86.382l-1.279 4.016c-0.973 3.067-3.484 3.89-3.509 3.896-0.196 0.042-0.39 0.090-0.584 0.143-0.148 0.040-15.431 4.176-32.514 6.257-2.405 0.293-4.689 0.526-6.856 0.704 0.592-4.061 1.167-7.88 1.707-11.469 4.217-28.010 6.333-42.070-1.166-52.074-5.31-7.083-13.483-10.209-22.416-8.586-15.262 2.78-30.957 19.274-36.508 38.364-5.068 17.43-0.705 34.147 11.971 45.864 5.063 4.68 12.188 7.742 21.507 9.209-3.208 26.461-6.062 60.311-6.062 103.399v0c0 43.087 2.853 76.935 6.062 103.397-9.319 1.467-16.443 4.53-21.506 9.209-12.677 11.717-17.040 28.433-11.972 45.863 5.551 19.092 21.246 35.585 36.507 38.364 8.934 1.627 17.106-1.502 22.416-8.586 7.5-10.002 5.383-24.063 1.167-52.078-0.539-3.578-1.112-7.385-1.703-11.432 13.182 1.073 27.879 3.787 39.369 6.928 0.367 0.1 0.208 0.085 0.426 0.119 0.823 0.281 2.809 1.224 3.667 3.925l1.281 4.023c7.311 22.928 22.526 70.637 11.030 86.37-1.645 2.251-4.836 5.243-13.526 5.243-57.309 0.003-107.129-24.819-107.625-25.070-0.438-0.221-0.659-0.33-1.105-0.484-1.106-0.455-12.979-5.661-15.864-20.5-4.822-24.809-17.632-90.707-17.632-185.292 0.001-94.574 12.81-160.478 17.632-185.287 2.882-14.84 14.756-20.046 15.862-20.502zM255.282 98.745c-4.867-0.806-7.993-2.122-9.57-3.579-11.71-10.824-5.876-25.3-2.824-31.022 6.040-11.322 14.816-16.174 17.247-15.747 0.046 0.044 0.125 0.126 0.231 0.268 1.906 3.418-0.678 20.579-2.957 35.72-0.667 4.436-1.387 9.216-2.127 14.36zM259.81 399.255c-2.796 0-11.127-4.908-16.923-15.775-3.051-5.721-8.883-20.196 2.827-31.019 1.948-1.8 5.283-2.983 9.556-3.665 0.744 5.175 1.468 9.981 2.139 14.439 2.279 15.143 4.863 32.306 2.906 35.8-0.073 0.093-0.137 0.157-0.179 0.194-0.099 0.017-0.207 0.026-0.326 0.026z" />
<glyph unicode="&#xe00f;" glyph-name="Tarifs" d="M277.346 171.171c-19.484 0-31.134 8.028-36.358 25.709h45.603v21.702h-48.814v5.424c0 2.602 0 5.015 0.201 7.429h48.813v21.69h-45.204c5.425 16.274 16.874 23.714 35.76 23.714 15.668 0 27.525-3.422 28.123-3.422l4.418 23.307c-2.203 1.006-17.672 4.618-32.541 4.618-36.159 0-58.258-16.475-66.096-48.217h-15.667v-21.69h12.655c-0.198-2.414-0.198-4.827-0.198-7.429v-5.424h-12.656v-21.702h15.267c7.429-32.949 29.729-50.221 66.695-50.221 19.289 0 35.154 4.418 37.367 5.426l-4.418 23.305c-0.409 0-14.273-4.219-32.95-4.219zM488.061 174.252l-153.877-141.664c-0.127-0.116-0.252-0.236-0.373-0.358-6.383-6.429-14.664-7.778-20.49-7.778h-0.004c-10.492 0.002-21.479 4.5-28.699 11.77l-260.578 260.581c-1.312 1.322-1.318 3.466-0.014 4.781 0.086 0.087 0.17 0.177 0.254 0.265l102.072 109.771c6.14 6.117 14.258 9.482 22.881 9.482 8.676 0 16.837-3.408 22.983-9.596l1.911-1.924-14.194-15.309c-7.837-7.958-12.15-18.501-12.15-29.694-0.016-11.248 4.335-21.838 12.257-29.833 7.929-7.981 18.472-12.378 29.687-12.378h0.033c11.237 0 21.796 4.4 29.737 12.397 7.908 7.976 12.261 18.565 12.261 29.809 0.015 11.24-4.339 21.832-12.267 29.83l-15.767 15.876 3.453 3.873c6.122 6.061 14.205 9.395 22.792 9.395 8.678 0 16.845-3.409 23.019-9.627l234.981-234.982c1.269-1.278 1.299-3.345 0.092-4.687zM174.287 348.884c-4.156 4.193-6.441 9.757-6.434 15.68 0 5.935 2.291 11.507 6.45 15.695 0.081 0.081 0.161 0.165 0.238 0.249l14.707 15.861 15.994-16.103c4.164-4.201 6.452-9.765 6.444-15.681 0-5.927-2.288-11.499-6.437-15.683-4.139-4.168-9.642-6.463-15.5-6.463l-0.021-10.036v10.036c-5.83 0-11.315 2.292-15.441 6.445zM504.309 195.24l-234.973 234.973c-10.512 10.586-24.492 16.416-39.368 16.416-14.878 0-28.861-5.83-39.374-16.416-0.145-0.146-0.286-0.298-0.424-0.451l-1.681-1.886c-10.499 10.517-24.434 16.308-39.256 16.308-14.876 0-28.863-5.833-39.382-16.424-0.089-0.089-0.176-0.181-0.263-0.274l-102.103-109.803c-10.044-10.294-9.982-26.913 0.204-37.172l260.581-260.583c11.539-11.618 28.381-18.556 45.045-18.558h0.006c14.328 0 27.34 5.111 36.674 14.399l153.961 141.74c0.129 0.118 0.254 0.24 0.377 0.364 10.23 10.315 10.224 27.068-0.024 37.367z" />
<glyph unicode="&#xe010;" glyph-name="Tailor" d="M398.041 107.013c-12.844 30.817-30.801 58.631-53.368 82.667-22.183 23.649-45.164 39.572-61.742 49.060 23.175 12.764 55.092 36.089 71.643 67.196 7.573 3.98 13.477 12.396 16.331 23.526 2.784 10.946 2.768 26.364-5.332 36.853-1.862 41.948-19.873 68.004-34.947 82.614-19.724 19.116-46.491 30.071-73.457 30.071-26.961 0-53.733-10.955-73.451-30.071-15.075-14.609-33.098-40.666-34.947-82.614-8.1-10.489-8.126-25.907-5.328-36.862 2.842-11.122 8.754-19.538 16.327-23.518 16.546-31.107 48.462-54.432 71.632-67.196-16.577-9.488-39.554-25.41-61.736-49.060-22.569-24.036-40.525-51.85-53.364-82.667-15.857-38.074-23.89-80.804-23.89-127.012 0-6.063 4.919-11 11.002-11h114.93c17.039 0 30.681 8.013 38.825 14.354 8.131-6.341 21.783-14.354 38.826-14.354h114.925c6.088 0 11.008 4.938 11.008 11 0 46.208-8.038 88.938-23.887 127.013zM177.617 319.368c-1.454 3.048-4.226 5.245-7.52 5.982-0.962 0.246-3.901 3.497-5.46 10.033-1.977 8.293-0.378 15.927 2.24 18.237 0.026 0.018 0.053 0.035 0.075 0.062 1.168 1.037 2.069 2.267 2.679 3.611 0.584 1.265 0.936 2.671 0.998 4.165 0 0.096 0 0.185 0.009 0.281 1.116 62.549 44.377 95.282 86.532 95.282 42.164 0 85.422-32.75 86.528-95.3 0-0.044 0.018-0.097 0.018-0.14 0.035-1.582 0.403-3.066 1.045-4.419 0.571-1.177 1.354-2.284 2.346-3.224 0.132-0.123 0.246-0.229 0.369-0.343 2.617-2.328 4.199-9.936 2.231-18.203-1.563-6.545-4.498-9.795-5.465-10.042-3.294-0.737-6.062-2.934-7.52-5.982-17.851-37.24-63.155-62.338-79.553-68.681-16.401 6.343-61.701 31.441-79.552 68.681zM240.39 33.166l2.847 57.945c0.018 0.405 0.026 0.475 0.009 0.809 0.044 1.213 0.878 13.617 13.924 30.713 13.046-17.096 13.872-29.5 13.925-30.713-0.018-0.334-0.009-0.403 0.022-0.809l2.828-57.945-16.775-18.606-16.78 18.606zM244.198 172.18c0 3.515 1.357 6.817 3.813 9.295 2.438 2.46 5.675 3.813 9.149 3.813 3.453 0 6.713-1.353 9.149-3.813 2.474-2.496 3.831-5.798 3.831-9.313s-1.357-6.817-3.821-9.312c-0.036-0.035-0.075-0.053-0.109-0.105l-9.041-9.418-9.030 9.399c-0.035 0.071-0.075 0.089-0.119 0.142-2.464 2.46-3.822 5.78-3.822 9.312zM295.995-9.002c-9.506 0-17.658 4.234-23.158 8.1l20.487 22.701c1.95 2.161 2.96 5.007 2.828 7.905l-3.057 62.181c0 4.164-1.238 23.737-21.9 48.44l8.758 9.119c6.027 6.097 9.321 14.161 9.313 22.718 0 8.609-3.33 16.674-9.374 22.789-6.062 6.113-14.14 9.47-22.758 9.47-8.574 0-16.634-3.356-22.704-9.47-6.040-6.098-9.365-14.18-9.356-22.771 0-8.592 3.308-16.656 9.316-22.735l8.754-9.119c-20.662-24.703-21.896-44.276-21.905-48.44l-3.048-62.181c-0.136-2.898 0.874-5.744 2.824-7.905l20.482-22.701c-5.486-3.865-13.656-8.1-23.153-8.1h-103.76c4.951 166.827 121.488 226.74 142.584 236.158 21.097-9.418 137.64-69.331 142.586-236.158h-103.759z" />
<glyph unicode="&#xe012;" glyph-name="Tablet" d="M429.291 25.822c-1.089-18.758-17.881-34.613-36.667-34.621l-310.526-0.1c-1.711 0-3.327 1.84-3.327 3.785 0 0.225-0.006 0.451-0.020 0.676l-20.804 355.6c-0.688 11.773 3.222 22.881 11.008 31.277 5.593 6.032 12.73 10.159 20.669 12.084l15.66-333.46h288.885l20.228 356.316h-10.633c-203.501-0.013-271.104-0.019-293.592-0.022l-0.32 6.82c0.105 19.185 12.117 32.559 29.29 32.559l311.659 0.162c1.763 0 3.211-1.378 3.322-3.113l-24.832-427.963zM393.134 397.289l-17.946-316.137h-250.735l-14.847 316.116c46.827 0.006 236.38 0.018 283.528 0.021zM450.795 480l-311.659-0.162c-29.865 0-52.387-24.039-52.387-55.916 0-0.181 0.004-0.36 0.013-0.542l0.27-5.758c-13.456-2.625-25.606-9.33-35.017-19.475-12.106-13.054-18.19-30.22-17.129-48.335l20.784-355.308c0.203-14.65 11.98-26.504 26.428-26.504l310.535 0.098c31.127 0.016 57.918 25.309 59.723 56.385l24.858 428.417c0.012 0.223 0.020 0.446 0.020 0.669-0.001 14.574-11.859 26.431-26.439 26.431zM265.886 40.666h-30.128l1.688-30.557h26.68z" />
<glyph unicode="&#xe013;" glyph-name="Surfgsm" d="M171.515 6.34h24.291l1.602 27.82h-27.429zM361.229 368.087l-1.362-9.536c-0.248-1.734-0.372-3.344-0.372-4.831-0.744-3.59-3.715-9.412-12.881-9.412-6.563 0-10.65 3.343-10.65 12.756 0 14.985 5.202 21.921 15.357 21.921 8.42 0.001 10.156-5.077 9.908-10.898zM412.873 369.821c0 32.076-25.389 52.016-61.43 51.892-7.287 0.026-14.272-1.061-20.771-3.086-7.425-2.313-14.2-5.87-20.044-10.45-13.379-10.488-21.851-26.333-21.851-44.92 0-24.563 8.716-39.602 22.218-48.205 5.471-3.485 11.727-5.916 18.509-7.492 7.198-1.674 14.987-2.388 23.055-2.388 6.067 0 10.65 0.743 15.356 2.106l-3.592 13.994c-3.84-0.618-7.927-1.238-12.386-1.238-8.454 0-15.587 1.047-21.533 3.033-8.211 2.743-14.152 7.283-18.17 13.344-4.667 7.040-6.738 16.128-6.738 26.846 0 11.017 3.581 20.782 9.936 28.265 4.985 5.871 11.679 10.332 19.692 12.888 4.965 1.584 10.434 2.441 16.318 2.441 27.123 0 44.709-13.871 44.709-38.021 0-17.214-4.829-26.379-13.251-26.379-4.706 0-7.431 3.221-6.192 12.756l4.83 36.783h-16.967l-0.99-6.688c-2.726 4.707-7.556 7.927-15.482 7.927-5.242 0-9.883-1.362-13.843-3.784-10.076-6.16-15.756-19.179-15.756-34.113 0-12.857 5.596-19.787 12.442-22.986 3.439-1.609 7.196-2.28 10.717-2.28 10.156 0 16.101 5.326 19.444 12.261 3.22-8.174 10.65-12.137 19.939-12.261 21.551-0.124 31.831 16.967 31.831 39.755zM446.352 363.456c0-52.676-42.853-95.532-95.526-95.532-8.803 0-17.329 1.203-25.429 3.443-7.232 2-14.123 4.828-20.563 8.38-10.745 5.929-20.236 13.866-27.958 23.303-10.84 13.247-18.194 29.447-20.661 47.191-0.601 4.32-0.917 8.73-0.917 13.214 0 18.176 5.104 35.18 13.95 49.659 4.774 7.816 10.641 14.898 17.385 21.029 16.972 15.427 39.503 24.842 64.192 24.842 52.674 0.001 95.527-42.853 95.527-95.529zM245.4 413.095c-7.123-15.069-11.115-31.896-11.115-49.639 0-4.47 0.261-8.877 0.753-13.217-76.142-0.010-108.521-0.018-122.314-0.023l-1.558 33.132c0.098 17.471 11.040 29.654 26.686 29.654l107.548 0.093zM250.41 71.111h-124.12l-12.214 260.833c25.303 0.009 87.055 0.018 124.534 0.022 4.039-14.375 10.774-27.629 19.621-39.19l-7.821-221.665zM108.853 52.838h159.196l7.813 221.461c8.311-7 17.606-12.861 27.649-17.34l-13.711-236.322c-0.992-17.084-16.288-31.525-33.402-31.535l-170.493-0.088c-1.562 0-3.040 1.68-3.040 3.455v0.305l-17.143 295.811c-0.632 10.784 2.951 21.004 10.087 28.778 5.412 5.896 12.393 9.831 20.12 11.456l12.924-275.981zM467.365 363.456c0 64.262-52.28 116.544-116.54 116.544-37.714 0-71.293-18.012-92.607-45.88l-120.376-0.103c-27.188 0-47.689-21.883-47.689-50.901l1.57-33.688c-12.045-2.494-22.938-8.64-31.395-17.852-11.016-12.002-16.551-27.705-15.584-44.21l17.11-295.239c0.183-13.336 10.902-24.127 24.053-24.127l170.502 0.090c28.336 0.014 52.725 23.041 54.367 51.33l13.38 230.575c8.567-2.015 17.495-3.083 26.669-3.083 64.26-0.001 116.54 52.282 116.54 116.544z" />
<glyph unicode="&#xe014;" glyph-name="Stopwatch" d="M419.487 252.756c0-90.535-73.657-164.195-164.196-164.195-90.538 0-164.196 73.66-164.196 164.195 0 90.539 73.658 164.197 164.196 164.197 90.539 0 164.196-73.658 164.196-164.197zM281.606 12.369c-2.742-12.41-14.050-21.418-26.885-21.418-3.821 0-7.513 0.826-10.969 2.455-6.588 3.104-11.527 8.635-13.908 15.572-2.417 7.053-1.895 14.588 1.473 21.221 4.902 9.656 13.259 18.746 23.866 26.061 15.599-10.377 30.2-26.809 26.423-43.891zM444.501 388.771l-43.715 43.714-29.372-33.071c-25.428 20.177-56.203 33.886-89.821 38.634l2.485 41.952h-61.821l2.936-42.526c-31.775-5.161-60.894-18.339-85.195-37.398l-28.785 32.409-43.713-43.714 33.954-29.571c-20.987-30.239-33.311-66.927-33.311-106.444 0-95.248 71.526-174.104 163.688-185.68-8.923-7.887-16.125-16.928-20.98-26.488-6.2-12.213-7.163-26.080-2.716-39.053 4.411-12.861 13.586-23.121 25.836-28.893 6.541-3.080 13.521-4.643 20.751-4.643h0.002c23.514 0 44.247 16.576 49.294 39.416 5.236 23.684-7.584 44.627-25.143 59.674 92.103 11.631 163.564 90.459 163.564 185.666 0 39.182-12.112 75.583-32.776 105.676l34.838 30.34zM255.292 140.242c-62.042 0-112.517 50.475-112.517 112.514 0 58.525 44.914 106.75 102.084 112.032v-82.868c-9.894-4.41-16.813-14.332-16.813-25.846 0-15.599 12.69-28.29 28.288-28.29s28.288 12.691 28.288 28.29c0 11.514-6.917 21.436-16.811 25.846v82.655c56.171-6.248 99.998-54.008 99.998-111.819 0.001-62.039-50.475-112.514-112.517-112.514zM255.292 388.227c-74.699 0-135.469-60.772-135.469-135.471 0-74.695 60.77-135.467 135.469-135.467s135.47 60.771 135.47 135.467c0 74.699-60.772 135.471-135.47 135.471z" />
<glyph unicode="&#xe015;" glyph-name="Stay-informed" d="M477.664 145.652c-1.178-19.345-18.51-35.677-37.889-35.688h-311.442c-6.248-0.002-13.699-3.088-18.12-7.504-0.071-0.072-0.141-0.145-0.21-0.216l-70.937-74.684-15.901 295.038c-0.697 11.904 3.182 23.201 10.919 31.813 5.476 6.090 12.479 10.387 20.3 12.581l12.254-215.94h376.702l12.551 239.117-10.574 0.001c-263.443 0.032-345.102 0.021-370.521 0.007l-0.476 8.379c0.128 19.821 12.563 33.637 30.328 33.637h380.557c1.998 0 3.633-1.584 3.713-3.564l-11.254-282.977zM434.738 370.101l-10.443-198.981h-338.695l-11.291 198.991c54.647 0.022 305.611-0.004 360.429-0.010zM485.205 455.271h-380.557c-30.448 0-53.41-24.515-53.41-57.025 0-0.218 0.007-0.435 0.020-0.653l0.422-7.473c-13.421-2.979-25.491-9.965-34.763-20.283-11.886-13.229-17.852-30.485-16.795-48.535l16.863-312.874c0.163-10.308 7.208-15.699 14.17-15.7h0.002c2.912 0 7.308 0.926 11.718 5.335 0.070 0.070 0.139 0.141 0.206 0.213l83.379 87.779c0.467 0.327 1.483 0.744 2.022 0.829h311.302c31.752 0.019 59.084 25.824 60.926 57.526 0.004 0.070 0.008 0.141 0.012 0.21l11.271 283.396c0.006 0.153 0.010 0.306 0.010 0.458-0.001 14.776-12.023 26.797-26.798 26.797zM131.892 281.357h250.282v-20.069h-250.282v20.069z" />
<glyph unicode="&#xe016;" glyph-name="Stayinformed" d="M477.662 145.652c-1.178-19.345-18.51-35.677-37.889-35.688h-311.442c-6.248-0.002-13.699-3.088-18.119-7.504-0.072-0.072-0.142-0.145-0.211-0.216l-70.936-74.684-15.902 295.038c-0.696 11.904 3.183 23.201 10.92 31.813 5.477 6.090 12.479 10.387 20.3 12.581l12.254-215.94h376.702l12.551 239.117-10.574 0.001c-263.443 0.032-345.101 0.021-370.52 0.007l-0.476 8.379c0.129 19.821 12.563 33.637 30.328 33.637h380.556c1.998 0 3.633-1.584 3.713-3.564l-11.255-282.977zM434.736 370.101l-10.443-198.981h-338.695l-11.291 198.991c54.648 0.022 305.611-0.004 360.429-0.010zM485.203 455.271h-380.556c-30.447 0-53.41-24.515-53.41-57.025 0-0.218 0.008-0.435 0.021-0.653l0.423-7.473c-13.422-2.979-25.492-9.965-34.764-20.283-11.887-13.229-17.854-30.485-16.797-48.535l16.863-312.873c0.162-10.308 7.209-15.699 14.17-15.7h0.002c2.912 0 7.309 0.926 11.718 5.335 0.069 0.070 0.14 0.141 0.206 0.213l83.379 87.779c0.467 0.327 1.482 0.744 2.022 0.829h311.301c31.752 0.019 59.084 25.824 60.926 57.526 0.004 0.070 0.008 0.141 0.012 0.21l11.271 283.396c0.006 0.153 0.010 0.306 0.010 0.458 0 14.775-12.021 26.796-26.797 26.796zM131.89 281.356h250.282v-20.068h-250.282v20.068z" />
<glyph unicode="&#xe017;" glyph-name="Sondage" d="M63.733 31.732l-20.328-0.002c-11.208 0-20.326-9.118-20.326-20.325 0-11.208 9.12-20.326 20.328-20.326s20.324 9.118 20.324 20.326c0 0.051 0 0.102 0.002 0.153v20.174zM43.407-32c-23.934 0-43.407 19.471-43.407 43.405s19.472 43.405 43.405 43.405l20.328 0.002v413.648c0 6.373 5.166 11.54 11.54 11.54 6.372 0 11.539-5.167 11.539-11.54v-413.646l20.324 0.002c11.166 0 20.258 9.051 20.324 20.202 0 0.041 0 0.081 0 0.123l0.004 127.301c-0.001 0.056-0.001 0.111-0.001 0.168 0 0.065 0.001 0.133 0.002 0.198 0.106 23.843 19.534 43.205 43.4 43.205 23.932 0 43.401-19.471 43.401-43.403l0.002-127.099c0.004-0.124 0.006-0.248 0.006-0.37 0-11.209 9.116-20.327 20.322-20.327s20.323 9.118 20.323 20.327v266.294c0 23.934 19.47 43.406 43.403 43.406s43.4-19.472 43.4-43.406l0.006-266.293c0-11.209 9.117-20.327 20.324-20.327 11.205 0 20.322 9.118 20.322 20.327v359.689c0 0.101 0.002 0.201 0.004 0.301 0.162 23.797 19.568 43.108 43.4 43.108 23.875 0 43.309-19.379 43.402-43.234 0-0.059 0-0.116 0-0.175v-359.688c0-11.207 9.117-20.326 20.324-20.326l10.537-0.004c6.373-0.002 11.539-5.171 11.537-11.544s-5.17-11.536-11.541-11.536l-10.537 0.004c-23.928 0-43.398 19.472-43.398 43.406v359.542c-0.002 0.050-0.002 0.1-0.002 0.15 0 11.208-9.115 20.325-20.322 20.325-11.205 0-20.32-9.118-20.32-20.325 0-0.086-0.002-0.172-0.004-0.26v-359.433c0-23.936-19.471-43.407-43.402-43.407-23.934 0-43.404 19.472-43.404 43.407l-0.004 266.293c0 11.207-9.117 20.326-20.322 20.326-11.207 0-20.324-9.119-20.324-20.326v-266.293c0-23.936-19.469-43.407-43.402-43.407-23.787 0-43.166 19.236-43.399 42.972-0.005 0.144-0.008 0.289-0.008 0.436l-0.002 127.469c0 11.207-9.117 20.326-20.322 20.326s-20.322-9.119-20.322-20.326l-0.004-127.315c0-0.051 0.001-0.102 0.001-0.152 0-23.935-19.472-43.406-43.402-43.406l-20.326-0.002v-20.329c0-0.061-0.002-0.12-0.002-0.18-0.095-23.854-19.53-43.228-43.403-43.228z" />
<glyph unicode="&#xe018;" glyph-name="Sms" d="M96.559 358.43h314.833l-12.082-193.22h-295.016l-7.735 193.22zM478.395 263.249c-3.676-64.749-7.473-131.706-9.289-143.134-2.848-17.993-11.627-25.675-29.35-25.675h-270.727c-3.339 0-6.519-1.431-8.731-3.925l-46.837-52.851-2.472 45.204c-0.341 6.186-5.45 11.022-11.645 11.022l-63.339-0.055-12.695 231.915c0 17.182 13.987 31.16 31.185 31.16h21.828l8.482-211.981h333.561l14.617 233.783h-336.050c0.181 0.897 0.266 1.829 0.226 2.784l-0.604 14.918c0 17.223 13.981 31.231 31.163 31.231h358.257c1.426 0 2.525-1.016 2.684-2.417-2.718-28.902-6.555-96.548-10.264-161.979zM485.975 450.968h-358.258c-30.044 0-54.485-24.472-54.475-55.020l0.613-15.384c0.005-0.108 0.012-0.223 0.016-0.332h-19.377c-30.057 0-54.508-24.441-54.492-55.122l13.314-243.577c0.344-6.186 5.451-11.024 11.646-11.024l63.338 0.055 3.424-62.51c0.261-4.718 3.342-8.817 7.807-10.374 1.259-0.435 2.55-0.648 3.837-0.648 3.28 0 6.474 1.382 8.731 3.928l62.178 70.159h265.478c29.15 0 47.76 16.108 52.385 45.338 2.006 12.586 5.496 74.166 9.541 145.471 3.729 65.799 7.586 133.834 10.266 161.847 0.039 0.366 0.055 0.737 0.055 1.109 0 14.383-11.676 26.084-26.027 26.084zM178.996 272.457c-14.98 5.247-16.873 6.475-16.873 10.96 0 3.942 4.889 6.202 13.411 6.202 11.053 0 22.817-3.794 24.122-4.228l1.059-0.35 3.028 13.911-0.766 0.323c-0.493 0.209-12.235 5.096-28.384 5.096-18.745 0-29.937-8.302-29.937-22.207 0-12.268 6.010-17.869 26.788-24.974 14.993-5.175 17.392-7.278 17.392-11.375 0-5.92-5.109-8.921-15.185-8.921-10.874 0-19.846 3.41-24.226 5.443l-1.078 0.501-3.881-14.304 0.98-0.438c8.843-3.972 18.86-6.159 28.205-6.159 20.381 0 32.548 9.003 32.548 24.084 0 14.51-8.774 20.085-27.203 26.436zM252.638 265.946l-20.51 36.856h-16.424v-79.297h16.837v48.058l16.906-28.946h6.374l16.909 28.947v-48.059h16.838v79.297h-16.423zM333.418 272.457c-14.98 5.247-16.871 6.475-16.871 10.96 0 3.942 4.887 6.202 13.41 6.202 11.053 0 22.816-3.794 24.121-4.228l1.059-0.35 3.029 13.911-0.768 0.323c-0.492 0.209-12.24 5.096-28.381 5.096-18.746 0-29.938-8.302-29.938-22.207 0-12.268 6.008-17.869 26.787-24.974 14.992-5.175 17.393-7.278 17.393-11.375 0-5.92-5.109-8.921-15.184-8.921-10.877 0-19.85 3.41-24.229 5.443l-1.078 0.501-3.881-14.304 0.98-0.437c8.844-3.973 18.859-6.16 28.207-6.16 20.379 0 32.545 9.003 32.545 24.084 0.002 14.51-8.771 20.085-27.201 26.436z" />
<glyph unicode="&#xe019;" glyph-name="Smiley" d="M141.278 104.674c3.397-6.942 7.673-14.609 12.981-22.449 23.746-35.065 56.242-57.311 96.606-66.142 41.893 7.215 74.698 28.838 97.526 64.292 5.609 8.712 9.926 17.272 13.207 24.906-23.439-11.897-60.854-25.349-110.23-25.349-48.572 0.001-86.12 13.016-110.090 24.742zM382.388 143.583c1.996 0 4-0.511 5.805-1.554 4.23-2.444 6.492-7.261 5.645-12.072-0.215-1.213-5.475-30.076-25.381-61.351-11.719-18.412-30.1-39.896-57.814-55.715 86.127 9.991 175.717 88.325 177.236 197.544-0.058 124.489-104.048 225.759-231.858 225.755-127.845 0-231.855-101.342-231.855-225.907 0-0.066-0.001-0.134-0.002-0.199-0.947-55.198 17.284-103.432 52.725-139.486 29.679-30.192 70.281-49.687 114.231-55.419-22.172 13.488-41.299 31.922-56.634 54.796-20.502 30.582-27.021 58.235-27.289 59.398-1.113 4.842 0.973 9.856 5.191 12.478 4.222 2.623 9.643 2.272 13.488-0.872 0.444-0.359 47.668-37.802 125.492-37.802 77.671 0 123.082 37.309 123.531 37.685 2.147 1.798 4.809 2.721 7.489 2.721zM292.196-11.435c-14.51 0-28.58 1.31-41.861 3.895-10.234-1.519-20.992-2.289-32.012-2.289-30.111 0-59.17 5.572-86.365 16.563-27.396 11.071-51.5 27.075-71.646 47.568-39.887 40.58-60.424 94.549-59.391 156.078 0.026 66.57 26.602 129.137 74.838 176.186 48.172 46.988 112.191 72.867 180.261 72.867 68.105 0.002 132.133-25.855 180.287-72.809 48.242-47.039 74.811-109.64 74.813-176.269 0-0.053 0-0.105 0-0.157-0.834-61.772-26.65-119.085-72.699-161.378-41.078-37.729-95.74-60.255-146.225-60.255zM217.042 301.426h-79.417l4.663-78.505h70.258zM374.382 301.426h-79.416l4.662-78.505h70.258z" />
<glyph unicode="&#xe01a;" glyph-name="Smartphone" d="M263.44 10.109l1.76 30.557h-30.126l1.686-30.557h26.68zM219.862 412.586h61.233v20.070h-61.233v-20.070zM335.652 367.466l-10.104-285.507h-138.334l-13.414 285.479c32.221 0.012 129.703 0.024 161.852 0.028zM391.509 453.795l-24.833-427.983c-1.090-18.764-17.89-34.625-36.685-34.635l-187.257-0.1c-1.717 0.002-3.34 1.846-3.34 3.797v0.334l-18.83 324.899c-0.694 11.845 3.241 23.070 11.080 31.608 5.97 6.504 13.68 10.835 22.212 12.605l14.21-302.433h176.852l11.527 325.65-10.398-0.001c-115.704-0.015-158.195-0.025-173.845-0.032l-1.723 36.684c0.105 19.189 12.124 32.486 29.308 32.486h188.388c1.768 0.001 3.222-1.136 3.334-2.879zM414.596 453.581c0 14.567-11.853 26.419-26.431 26.419l-188.389-0.162c-29.86 0-52.378-24.035-52.378-55.907l1.725-37c-13.229-2.739-25.193-9.489-34.481-19.607-12.1-13.183-18.178-30.429-17.117-48.557l18.792-324.271c0.201-14.644 11.974-26.496 26.418-26.496l187.268 0.098c31.122 0.016 57.91 25.309 59.713 56.377l24.86 428.437 0.020 0.669z" />
<glyph unicode="&#xe01b;" glyph-name="Settings" d="M298.825 120.631c-13.697-5.652-28.088-8.521-42.763-8.521-45.435 0-86.021 27.13-103.412 69.087-23.565 56.977 3.564 122.564 60.543 146.151 13.674 5.674 28.065 8.565 42.739 8.565 45.457 0 86.066-27.13 103.457-69.087 23.544-56.978-3.652-122.565-60.564-146.195zM493.911 346.739c-3.543 6.935-10.912 11.282-18.564 10.87l-0.174-0.022-60.545-2.5-4 4.544c-6.021 6.782-12.369 13.108-18.891 18.826l-4.564 4.021 2.391 60.848c0.348 7.783-3.912 15.087-10.826 18.608-13.458 6.936-27.37 12.675-41.284 17.109-2 0.652-4.021 0.956-6.152 0.956-5.564 0-10.955-2.369-14.738-6.479l-41.086-44.695-6.088 0.37c-8.848 0.587-17.783 0.587-26.609-0.022l-6.043-0.391-41.327 44.761c-3.805 4.109-9.131 6.457-14.718 6.457-2.087 0-4.131-0.304-6.043-0.935-14.088-4.5-28-10.261-41.436-17.152-6.869-3.521-11.13-10.826-10.782-18.565l2.479-60.738-4.544-4c-6.717-5.936-13.043-12.283-18.805-18.892l-4-4.565-60.87 2.435c-0.131 0-0.305 0-0.479 0-7.738 0-14.652-4.152-18.087-10.826-6.826-13.174-12.608-27.087-17.217-41.369-2.305-7.37-0.152-15.544 5.543-20.782l44.675-41.152-0.348-6.022c-0.565-8.934-0.521-17.913 0.044-26.651l0.391-6.065-44.761-41.308c-5.695-5.282-7.848-13.456-5.5-20.826 4.544-14.239 10.283-28.152 17.131-41.348 3.435-6.608 10.435-10.848 17.826-10.848 0.217 0 0.435 0 0.651 0h0.131l60.719 2.543 4.021-4.564c5.935-6.783 12.261-13.087 18.848-18.826l4.587-4-2.435-60.935c-0.305-7.696 3.956-14.979 10.848-18.565 13.108-6.761 27.021-12.522 41.326-17.109 1.913-0.63 3.956-0.935 6.065-0.935 5.587 0 10.935 2.348 14.717 6.457l41.152 44.717 6.021-0.369c8.87-0.565 17.87-0.565 26.739 0l6.023 0.369 41.281-44.717c3.783-4.131 9.131-6.457 14.695-6.457 2.088 0 4.131 0.305 6.109 0.935 14.174 4.544 28.088 10.305 41.326 17.152 6.957 3.565 11.174 10.848 10.826 18.544l-2.479 60.761 4.566 4c6.826 6.043 13.129 12.369 18.781 18.848l4.021 4.565 61.305-2.413c7.521 0 14.826 4.369 18.152 10.869 6.869 13.305 12.631 27.218 17.131 41.305 2.391 7.413 0.217 15.587-5.5 20.848l-44.674 41.131 0.391 6.021c0.521 8.956 0.521 17.956-0.043 26.695l-0.436 6.065 44.783 41.305c5.695 5.261 7.869 13.413 5.479 20.782-4.474 14.044-10.212 27.957-17.126 41.326z" />
<glyph unicode="&#xe01c;" glyph-name="Seealso" d="M258.432 101.267c-0.726-0.004-1.437-0.008-2.16-0.008-94.285 0-180.2 45.656-231.47 122.742 38.949 58.557 97.885 98.952 165.299 115.001-15.548-16.336-25.104-38.426-25.104-62.708 0-50.174 40.824-90.995 91.005-90.995 50.186 0 91.016 40.82 91.016 90.995 0 24.452-9.695 46.68-25.439 63.050 68.559-15.851 127.83-56.519 165.749-115.344-49.169-76.278-134.237-122.034-228.896-122.733zM327.878 276.294c0-39.622-32.244-71.856-71.877-71.856-39.627 0-71.867 32.234-71.867 71.856 0 33.965 23.684 62.482 55.395 69.952 6.257 0.363 12.557 0.53 18.894 0.485 4.618-0.034 9.218-0.177 13.788-0.424 31.849-7.372 55.667-35.953 55.667-70.013zM511.119 224.001c-0.002 0.061 0.002 0.121-0.002 0.182 0.029 2.004-0.479 4.039-1.602 5.877-26.541 43.448-64.438 79.135-109.591 103.202-42.859 22.844-91.734 35.112-141.34 35.478-49.811 0.378-99.057-11.306-142.4-33.759-46.786-24.235-85.007-59.489-113.601-104.783-1.212-1.92-1.756-4.072-1.695-6.184v-0.028c-0.061-2.111 0.483-4.264 1.695-6.184 28.595-45.293 66.817-80.549 113.606-104.785 42.685-22.111 91.081-33.768 140.119-33.768 0.76 0 1.525 0.004 2.285 0.008 49.606 0.367 98.479 12.637 141.335 35.48 45.15 24.066 83.046 59.754 109.587 103.205 1.123 1.836 1.631 3.871 1.602 5.877 0.004 0.061 0 0.121 0.002 0.182z" />
<glyph unicode="&#xe01d;" glyph-name="Secure-payment" d="M136.594 42.244c-14.799 0-26.839 12.039-26.839 26.836s12.040 26.837 26.839 26.837c14.795 0 26.832-12.040 26.832-26.837s-12.037-26.836-26.832-26.836zM136.594 120.070c-28.118 0-50.991-22.874-50.991-50.99s22.874-50.99 50.991-50.99c28.113 0 50.985 22.874 50.985 50.99s-22.871 50.99-50.985 50.99zM292.231 42.244c-14.795 0-26.834 12.039-26.834 26.836s12.039 26.837 26.834 26.837c14.797 0 26.834-12.040 26.834-26.837s-12.037-26.836-26.834-26.836zM292.231 120.070c-28.113 0-50.986-22.874-50.986-50.99s22.873-50.99 50.986-50.99c28.115 0 50.988 22.874 50.988 50.99s-22.872 50.99-50.988 50.99zM227.539 243.171l2.648 45.296h-30.458l2.686-45.296zM474.006 378.080h-19.407l6.088 18.215c1.924 5.757 7.33 9.529 13.349 9.457 0.119-0.003 0.232-0.003 0.348-0.001 7.459-0.201 13.465-6.328 13.465-13.832-0.001-7.631-6.21-13.839-13.843-13.839zM359.776 170.553h-292.638l-41.067 124.399c-3.197 9.686-2.313 26.985 1.831 36.237 0.106 0.228 10.71 22.736 31.009 22.736h98.781l1.608-27.449h-0.781c-16.41 0-29.761-13.376-29.761-29.82 0-0.198 0.004-0.396 0.014-0.592l3.35-68.225c0.084-7.814 3.177-15.137 8.73-20.655 5.606-5.569 13.038-8.629 20.953-8.629l103.604 0.001c0.066-0.001 0.131-0.001 0.195-0.001 7.912 0 15.344 3.060 20.951 8.63 5.52 5.484 8.607 12.754 8.73 20.515l4.748 68.115c0.021 0.28 0.031 0.561 0.031 0.841 0 16.443-13.355 29.82-29.77 29.82h-1.107l1.922 27.449h149.951l-61.284-183.372zM189.112 388.182c6.151 6.388 15.332 9.765 26.551 9.765 10.42 0 18.965-3.24 24.708-9.373 5.334-5.692 7.96-13.635 7.394-22.304l-2.788-39.793h-61.481l-2.312 39.495c0 0.011 0.002 0.020 0.002 0.031 0 0.027-0.004 0.052-0.004 0.078-0.281 8.652 2.53 16.494 7.93 22.101zM270.296 302.323c2.994 0 5.449-2.377 5.607-5.36l-4.738-67.947c-0.021-0.279-0.029-0.561-0.029-0.842 0-1.965-1.006-3.258-1.607-3.854-0.609-0.606-1.939-1.661-4.043-1.609h-103.564c-0.026 0-0.052-0.001-0.076-0.001-2.030 0-3.358 1.004-3.969 1.609-0.599 0.595-1.606 1.888-1.606 3.854 0 0.198-0.004 0.396-0.012 0.592l-3.343 68.107c0.112 3.024 2.583 5.451 5.603 5.451h111.777zM474.006 429.909c-0.076 0-0.154-0.001-0.232-0.002-16.372-0.007-30.784-10.368-35.995-25.956l-8.646-25.872h-157.935c-1.715 10.239-6.211 19.548-13.199 27.009-10.279 10.97-25.314 17.012-42.336 17.012-17.94 0-33.137-5.936-43.95-17.165-7.1-7.372-11.767-16.636-13.695-26.856h-99.107c-36.062 0-52.353-35.453-53.028-36.961-6.613-14.769-7.821-38.372-2.748-53.737l43.716-132.427c0.25-0.821 0.586-1.605 0.996-2.344 0.892-1.607 2.118-2.956 3.561-3.979 1.379-0.982 2.973-1.682 4.701-2.015 0.75-0.147 1.52-0.222 2.297-0.222 0.093 0 0.187 0 0.281 0.002h309.787c5.193 0 9.807 3.324 11.453 8.251l66.6 199.277h27.479c20.951 0 37.996 17.043 37.996 37.993s-17.045 37.992-37.996 37.992z" />
<glyph unicode="&#xe01e;" glyph-name="Search" d="M442.33 207.201c-57.045-51.643-128.692-43.315-198.046-35.262-12.601 1.46-24.66 2.86-36.426 3.864-1.004 11.759-2.405 23.815-3.865 36.416-8.266 71.125-16.815 144.676 39.404 202.392l0.247 0.256c56.054 55.648 146.939 55.525 202.849-0.36 56.025-56.007 56.020-147.139-0.006-203.152l-4.157-4.154zM161.405 80.19l-78.211-78.479c-13.639-13.634-35.834-13.634-49.472 0-13.639 13.632-13.639 35.821-0.016 49.446l78.519 78.212c17.605 17.117 40.514 24.738 73.377 24.182 0.554-32.855-7.072-55.763-24.197-73.361zM471.051 203.247c57.131 65.581 54.479 165.468-7.941 227.878-65.186 65.166-171.259 65.166-236.446-0.003l-6.264-6.272 0.162-0.294c-25.027-28.221-39.511-62.020-44.211-103.030-4.335-37.783 0.054-75.528 4.292-112.020 1.304-11.224 2.555-22.009 3.508-32.425-38.642 0.37-66.26-9.394-88.372-30.926l-78.677-78.373c-22.803-22.794-22.803-59.893 0-82.687 22.802-22.797 59.909-22.797 82.729 0.013l78.281 78.551-8.326 8.294 8.416-8.198c21.541 22.103 31.305 49.72 30.935 88.348 10.418-0.952 21.207-2.203 32.437-3.51 36.504-4.237 74.252-8.622 112.050-4.292 44.191 5.067 80.012 21.484 109.506 50.192l8.443 8.222-0.522 0.532zM277.644 245.715c-36.675 36.669-36.678 96.332 0 132.998 36.676 36.665 96.352 36.665 133.031 0 36.675-36.669 36.675-96.329 0-132.998-36.68-36.665-96.352-36.665-133.031 0zM425.126 393.158c-44.648 44.635-117.291 44.635-161.934 0-44.647-44.632-44.647-117.253 0-161.888 44.643-44.632 117.291-44.635 161.934 0 44.645 44.632 44.645 117.256 0 161.888z" />
<glyph unicode="&#xe020;" glyph-name="Reload" d="M183.096 168.646h16.039c5.545-34.809 26.168-52.204 61.878-52.204 12.119 0 23.982 1.93 35.582 5.8l-3.486 16.431c-10.443-3.224-21.074-4.835-31.9-4.835-11.863 0-21.176 2.84-27.945 8.509-6.77 5.672-11.311 14.44-13.633 26.3h50.661v15.86h-52.208l-0.188 5.991c0 3.606 0.060 6.251 0.188 7.922h52.208v15.861h-50.27c2.44 11.217 7.024 19.526 13.726 24.939 6.701 5.417 15.733 8.126 27.070 8.126 8.64 0 17.596-1.229 26.882-3.674l3.479 16.431c-2.577 0.91-6.77 1.867-12.569 2.9-5.8 1.029-11.796 1.552-17.987 1.552-34.672 0-55.1-16.762-61.283-50.273h-16.056v-15.861h14.313c-0.136-1.671-0.196-4.315-0.196-7.922l0.196-5.991h-14.5v-15.862zM503.33 196.128c-7.161 9.938-17.766 16.495-29.859 18.45-2.491 0.404-4.992 0.604-7.467 0.604-9.542 0-18.837-2.96-26.764-8.624-10.005-7.144-16.608-17.735-18.582-29.795h-0.017c-1.735-15.223-5.265-30.322-10.503-44.873-17.97-49.942-54.369-89.892-102.487-112.472-1.012-0.472-2.058-0.808-3.074-1.263-4.095-0.387-8.206-0.697-12.353-0.854-57.447-2.203-112.343 18.098-154.619 57.146-42.267 39.057-66.845 92.196-69.184 149.631-2.134 52.268 14.428 102.367 46.787 142.738 50.266 31.984 114.333 41.275 174.702 19.551 19.663-7.066 37.837-16.979 54.165-29.544l-41.714-41.731c-3.173-3.181-4.244-7.9-2.738-12.131 1.505-4.231 5.314-7.229 9.779-7.692l164.17-16.894c3.325-0.34 6.642 0.77 9.1 3.041 2.449 2.275 3.818 5.494 3.733 8.84l-4.142 166.079-23.294-0.583 3.818-152.845-126.647 13.029 33.49 33.511c2.271 2.284 3.513 5.4 3.402 8.62-0.111 3.223-1.548 6.263-3.98 8.381-20.912 18.288-44.887 32.359-71.25 41.842-41.735 15.019-85.958 17.247-128.051 6.948 72.849 45.218 168.043 43.627 240.326-9.309l13.76 18.795c-42.301 30.985-91.72 46.119-140.815 46.119-64.43 0-128.298-26.049-174.953-76.539-3.087-3.339-6.038-6.77-8.909-10.253-39.52-26.176-69.63-63.966-85.958-109.349-20.088-55.814-17.17-116.12 8.189-169.816s70.136-94.34 126.069-114.466c53.671-19.313 111.438-17.438 163.519 5.022 56.732 6.374 108.699 32.512 147.811 74.834 24.034 26.023 41.578 56.231 52.141 89.794l-0.038 0.013c0.208 0.608 0.399 1.229 0.506 1.889 1.957 12.088-0.9 24.219-8.069 34.156zM155.338 12.34c-103.38 37.193-157.315 151.352-120.219 254.481 5.936 16.494 13.862 31.705 23.387 45.494-9.98-28.213-14.627-58.357-13.369-89.186 2.602-63.635 29.825-122.511 76.667-165.785 30.276-27.976 66.419-47.199 105.378-56.682-24.143-0.501-48.432 3.254-71.844 11.678zM488.451 166.312c-9.542-29.956-25.267-56.954-46.77-80.23-19.229-20.814-41.914-37.283-66.854-48.913 25.429 23.719 45.12 53.195 57.227 86.839 5.693 15.839 9.559 32.266 11.54 48.832 0.009 0.043 0.025 0.081 0.034 0.123 0.97 5.924 4.21 11.12 9.143 14.641 4.958 3.534 10.979 4.954 16.966 3.98 5.962-0.961 11.175-4.188 14.704-9.074 3.403-4.717 4.78-10.453 4.010-16.198z" />
<glyph unicode="&#xe021;" glyph-name="Refresh" d="M503.326 196.128c-7.16 9.938-17.766 16.495-29.859 18.45-2.491 0.404-4.992 0.604-7.467 0.604-9.542 0-18.837-2.959-26.764-8.623-10.005-7.144-16.608-17.735-18.582-29.795h-0.017c-1.735-15.223-5.265-30.323-10.503-44.874-17.971-49.942-54.369-89.893-102.487-112.472-1.013-0.472-2.059-0.808-3.075-1.263-4.095-0.392-8.202-0.697-12.344-0.854-57.456-2.203-112.352 18.098-154.628 57.146-42.267 39.057-66.845 92.197-69.184 149.631-2.135 52.264 14.423 102.36 46.779 142.73 50.274 31.994 114.342 41.289 174.711 19.56 19.67-7.067 37.836-16.979 54.164-29.544l-41.714-41.731c-3.181-3.181-4.244-7.9-2.738-12.131s5.315-7.229 9.78-7.692l164.17-16.894c3.325-0.34 6.642 0.77 9.1 3.040 2.449 2.275 3.811 5.494 3.733 8.841l-4.142 166.079-23.294-0.583 3.818-152.846-126.648 13.029 33.491 33.512c2.271 2.283 3.512 5.4 3.41 8.619-0.119 3.223-1.557 6.264-3.98 8.381-20.921 18.289-44.895 32.359-71.259 41.842-41.735 15.019-85.958 17.247-128.047 6.948 72.849 45.218 168.039 43.628 240.323-9.308l13.76 18.795c-42.301 30.986-91.712 46.12-140.816 46.12-64.421 0-128.298-26.049-174.954-76.54-3.087-3.342-6.039-6.774-8.913-10.256-39.52-26.181-69.63-63.966-85.955-109.346-20.079-55.815-17.162-116.12 8.19-169.817 25.36-53.697 70.136-94.34 126.070-114.466 53.671-19.313 111.446-17.438 163.519 5.021 56.737 6.379 108.708 32.513 147.812 74.835 24.034 26.024 41.579 56.232 52.142 89.795l-0.039 0.013c0.209 0.608 0.4 1.229 0.507 1.888 1.965 12.088-0.9 24.218-8.070 34.156zM155.341 12.338c-103.389 37.194-157.324 151.354-120.228 254.483 5.936 16.494 13.867 31.705 23.392 45.499-9.976-28.218-14.624-58.362-13.365-89.191 2.594-63.634 29.817-122.51 76.659-165.785 30.276-27.976 66.424-47.2 105.383-56.683-24.143-0.501-48.428 3.253-71.841 11.677zM488.448 166.312c-9.542-29.957-25.275-56.954-46.771-80.231-19.233-20.814-41.914-37.287-66.854-48.913 25.424 23.719 45.12 53.191 57.227 86.839 5.702 15.856 9.571 32.309 11.558 48.896 0.004 0.021 0.013 0.038 0.017 0.060 0.97 5.924 4.21 11.12 9.15 14.641 4.95 3.533 10.972 4.954 16.958 3.98 5.962-0.962 11.175-4.188 14.704-9.075 3.407-4.716 4.781-10.448 4.011-16.197z" />
<glyph unicode="&#xe023;" glyph-name="Products" d="M346.769 73.153l1.623 28.617h-28.924l0.457-7.791 1.232-20.826h19.709zM343.515 119.799h0.789l1.623 28.633h-28.932l1.697-28.633h2.698zM489.569 379.071l-75.488-0.083 3.529 60.879 0.018 0.633c0 13.834-11.246 25.087-25.080 25.087l-293.967-0.15c-28.25 0-49.55-22.74-49.55-52.888l0.216-4.812 0.033-0.982v-0.033c-12.668-2.497-24.105-8.823-32.978-18.396-11.437-12.334-17.197-28.565-16.189-45.695l19.594-335.135c0.191-13.884 11.37-25.138 25.079-25.138h400.368c24.947 0.017 46.371 21.042 47.82 45.947l19.002 327.71 0.025 0.632c0 12.353-10.063 22.424-22.432 22.424zM98.589 443.347l293.958 0.149c1.59 0 2.881-1.231 2.988-2.797l-3.578-61.728-33.729-0.017 1.648 29.1-288.53-0.116-0.233 4.844c0.1 18.013 11.37 30.565 27.476 30.565zM303.419 331.927l0.051-1.199h-0.010c-9.988-2.33-18.994-7.508-26.068-15.132-9.689-10.421-14.551-24.139-13.709-38.606l10.879-186.074h-188.333l-13.851 294.947 264.119 0.084-0.457-8.074c-19.188-4.361-32.713-21.774-32.713-43.882l0.092-2.064zM44.786 4.449c-1.532 0-2.997 1.665-2.997 3.413v0.333l-19.635 335.735c-0.649 11.054 3.021 21.491 10.338 29.382 4.886 5.261 11.021 8.989 17.854 10.938l14.816-315.425h210.697l3.705-63.376c0.008-0.316 0.025-0.616 0.041-0.932l-234.819-0.068zM470.933 29.587c-0.766-13.218-12.594-24.371-25.828-24.371l-143.077-0.084c-0.133 0.084-0.383 0.383-0.383 0.683v0.316l-3.662 62.693-1.289 22.092-10.971 187.356c-0.484 8.407 2.289 16.331 7.84 22.291 3.105 3.346 6.885 5.859 11.063 7.475l7.107-138.081h149.709l5.744 162.169h-141.676l-0.102 2.114c0.059 7.458 3.021 15.249 9.266 19.461 2.904 1.965 6.525 3.146 10.92 3.146l143.982 0.133c0.15 0 0.283-0.1 0.316-0.232l-18.959-327.161zM326.634 310.052h117.68l-4.18-118.021h-107.424l-3.43 66.713-2.646 51.308zM191.307 22.229h25.17l1.657 28.816h-28.417zM373.163 55.124h-1l0.5-8.673 1.123-19.961h25.629l1.682 28.634h-5.811zM424.036 26.49h25.604l1.699 28.634h-28.926zM378.573 148.432h-6.41l1.623-28.633h25.629l1.682 28.633h-0.401zM426.501 73.153h25.619l1.682 28.617h-28.924zM323.62 26.49h25.621l1.613 28.634h-28.923zM428.964 119.799h25.621l1.682 28.633h-28.926zM375.868 101.77h-3.705l1.623-28.617h25.629l1.682 28.617h-3.096z" />
<glyph unicode="&#xe024;" glyph-name="Print" d="M505.489 284.698c-4.301 4.496-10.313 6.977-16.951 6.977l-82.934-0.097 7.025 140.7c0.338 7.219-1.967 13.825-6.477 18.563-4.303 4.496-10.313 6.993-16.92 6.993h-245.192c-0.064 0-0.121 0-0.177 0-13.374-0.209-25.668-5.64-34.627-15.291-8.967-9.636-13.471-22.333-12.681-35.658l6.929-129.164h-56.074c-13.39-0.209-25.685-5.639-34.643-15.291-8.959-9.636-13.455-22.333-12.681-35.643l8.741-167.277c0.186-11.779 9.676-21.318 21.326-21.318h66.942l3.062-27.15c0.379-11.602 9.805-20.931 21.318-20.931h223.191c23.121 0.016 43.006 18.804 44.344 41.926l0.369 6.896h62.52c23.059 0.017 42.926 18.708 44.344 41.717l15.693 185.068 0.033 0.419c0.336 7.218-1.968 13.808-6.48 18.561zM108.067 44.443l-1.877-0.209v1.981l1.877 0.113v-1.885zM474.214 82.39l-0.016-0.29c-0.66-11.424-10.877-21.075-22.301-21.075h-83.434l-1.498-27.747c-0.662-11.425-10.877-21.076-22.301-21.076h-222.441l-3.287 29.358 195.983 0.080c15.775 1.031 28.313 14.067 28.313 29.971 0 15.855-12.264 28.907-27.797 30.212v0.113h-165.256v-9.765l-0.153 9.604c-14.711-0.226-28.222-6.172-38.059-16.774-6.518-7.009-10.884-15.501-12.834-24.717h-68.223l-8.773 167.729c-0.427 7.315 1.99 14.196 6.808 19.4 4.802 5.172 11.449 8.089 18.724 8.218h59.401l2.184-40.5 230.628-0.531c16.805 0 30.502 13.688 30.502 30.51 0 17.032-13.971 31.437-30.535 31.437l-214.16-0.467-7.089 132.047c-0.419 7.315 1.998 14.196 6.815 19.4 4.802 5.172 11.44 8.089 18.724 8.218h245.097c0.58 0 0.887-0.113 0.918-0.146 0.113-0.080 0.484-0.789 0.404-2.256l-8.154-163.87 106.17 0.129c0.58 0 0.887-0.113 0.934-0.145 0.098-0.097 0.436-0.757 0.404-2.127l-15.698-184.94zM119.21 60.767c1.499 4.108 3.786 7.895 6.824 11.166 6.244 6.719 14.864 10.506 24.291 10.65v0.146h162.565c6.139 0 11.135-4.995 11.135-11.118 0-6.091-4.883-10.844-11.135-10.844h-193.68zM126.235 256.871l213.645 0.483c6.010 0 11.295-5.72 11.295-12.246 0-6.236-5.076-11.295-11.279-11.295l-212.452 0.467-1.209 22.591zM148.906 386.888h208.954v-19.206h-208.954v19.206zM148.906 335.116h208.954v-19.206h-208.954v19.206zM388.396 97.439h25.039l1.644 27.957h-28.262zM390.796 188.592h25.041l1.642 27.972h-28.261zM431.095 188.592h25.041l1.642 27.972h-28.246zM428.694 143.008h25.041l1.627 27.972h-28.246zM389.604 143.008h25.024l1.643 27.972h-28.247zM426.278 97.439h25.039l1.645 27.957h-28.248z" />
<glyph unicode="&#xe025;" glyph-name="Presencehome" d="M299.189 192.516c-3.594 0-6.973-1.4-9.516-3.939l-45.423-45.43-25.081 25.078c-2.54 2.545-5.917 3.947-9.516 3.947-3.593 0-6.972-1.402-9.517-3.947-5.246-5.246-5.246-13.789 0-19.035l34.598-34.602c2.539-2.539 5.917-3.939 9.512-3.939 2.942 0 5.732 0.932 8.073 2.691 0.516 0.387 1.002 0.807 1.449 1.248l54.942 54.949c2.539 2.543 3.939 5.924 3.939 9.518 0 3.598-1.4 6.977-3.939 9.521-2.544 2.539-5.923 3.94-9.521 3.94zM488.299 267.168c-0.639-0.583-1.65-0.93-2.699-0.93h-36.318c-14.766 0-27.264-11.337-27.518-24.851l-15.301-247.508c-0.014-0.236-0.016-0.414-0.016-0.65-0.145-0.553-1.84-2.146-4.273-2.146h-175.786c-18.155 0-33.195 12.695-36.79 30.957l-0.56 9.512h156.71l12.502 233.997h-204.569l12.584-213.421h-62.648c-2.158 0-3.536 1.313-3.536 2.217 0 0.229-0.007 0.455-0.020 0.684l-11.061 186.335c-0.224 13.752-12.025 24.875-26.53 24.875l-35.998-0.099c-1.094 0-2.046 0.326-2.833 0.968-0.273 0.27-0.557 0.648-0.557 1.054 0.001 0.408 0.299 0.784 0.571 1.042l205.031 178.643c0.062 0.053 0.123 0.107 0.183 0.163 6.318 5.745 14.791 8.909 23.859 8.909 9.065 0 17.524-3.16 23.821-8.9 0.109-0.099 0.219-0.194 0.33-0.289l211.598-178.622c0.297-0.28 0.445-0.56 0.447-0.83 0.002-0.348-0.221-0.744-0.623-1.11zM186.399 51.623l-11.431 193.854h162.112l-10.357-193.854h-140.324zM503.719 286.437c-0.070 0.062-0.141 0.122-0.211 0.183l-211.584 178.614c-10.539 9.523-24.449 14.766-39.198 14.766-14.778 0-28.727-5.264-39.29-14.827l-205.065-178.671c-0.059-0.051-0.118-0.104-0.176-0.156-5.273-4.787-8.183-11.234-8.193-18.151-0.010-6.931 2.891-13.402 8.168-18.222 0.067-0.062 0.136-0.123 0.206-0.183 4.987-4.341 11.415-6.732 18.128-6.732l35.998 0.098c1.959 0 3.422-1.156 3.422-2.189 0-0.229 0.007-0.457 0.020-0.684l11.062-186.337c0.224-13.768 12.075-24.9 26.611-24.9h62.449l0.537-9.102c0.027-0.461 0.083-0.92 0.165-1.373 5.386-29.775 29.903-50.57 59.622-50.57h175.786c14.672 0 27.088 11.289 27.344 24.746l15.299 247.508c0.016 0.238 0.018 0.43 0.018 0.667 0.143 0.574 1.895 2.235 4.447 2.235h36.316c6.838 0 13.313 2.464 18.238 6.945 5.236 4.773 8.211 11.456 8.164 18.335-0.047 6.814-3.066 13.375-8.283 18z" />
<glyph unicode="&#xe026;" glyph-name="Posts" d="M477.643 145.654c-1.182-19.335-18.508-35.661-37.879-35.672h-311.42c-6.246 0-13.701-3.085-18.128-7.502-0.071-0.073-0.144-0.147-0.215-0.222l-70.911-74.66-15.902 294.997c-0.696 11.899 3.181 23.193 10.917 31.802 7.662 8.523 18.309 13.554 30.009 14.184h121.563v-50.487c0-17.986 14.633-32.618 32.62-32.618 17.989 0 32.623 14.632 32.623 32.618 0 5.365 4.364 9.729 9.728 9.729 5.705 0 7.162-2.222 7.711-3.059 3.064-4.679 2.355-15.484-1.615-24.593-3.756-8.614-10.238-15.44-17.101-22.668-10.572-11.13-22.552-23.748-24.81-44.386-2.463-22.516 3.058-35.023 15.373-46.802-8.341-7.263-15.998-16.697-15.998-31.53-0.021-6.096 0.837-15.092 8.474-22.805l0.102-0.103c6.23-6.111 14.384-9.479 22.961-9.479l0.265 0.002 0.264-0.002c8.557 0 16.699 3.367 22.93 9.479l0.078 0.078c7.68 7.703 8.541 16.719 8.518 22.796 0 13.998-7.939 23.954-15.99 31.284 9.18 8.17 15.979 17.461 15.982 34.505 0.002 11.291 6.166 17.132 17.977 27.318 0.848 0.731 1.703 1.468 2.531 2.189 22.859 19.743 32.961 53.103 25.734 84.989-7.488 33.040-35.32 54.685-70.908 55.141l-56.56 0.001-0.621 8.459c0.163 16.731 10.567 33.535 30.313 33.535h248.938c1.992 0 3.621-1.58 3.701-3.551l-11.254-282.967zM267.709 154.716c0.016-4.87-0.988-6.889-2.619-8.539-2.443-2.38-5.574-3.69-8.818-3.69l-0.264 0.004-0.265-0.004c-3.26 0-6.395 1.306-8.838 3.678-1.582 1.617-2.626 3.71-2.611 8.586 0 7.721 4.316 12.588 11.608 18.492 7.114-5.998 11.807-11.408 11.807-18.527zM267.699 220.543c-0.002-10.386-3.262-14.655-11.62-21.552-10.909 9.65-12.953 16.645-11.279 31.94 1.521 13.904 9.81 22.631 19.409 32.738 7.758 8.169 15.779 16.616 20.949 28.474 5.266 12.086 8.428 30.767 0.002 43.629-3.627 5.537-10.824 12.139-24.514 12.139-16.44 0-29.816-13.376-29.816-29.818 0-6.908-5.623-12.528-12.534-12.528-6.91 0-12.53 5.62-12.53 12.528v51.995h57.162c20.652-0.286 45.010-10.809 51.51-39.493 5.609-24.741-1.957-50.39-19.299-65.369-0.836-0.726-1.666-1.443-2.492-2.155-11.692-10.083-24.944-21.511-24.948-42.528zM485.193 455.273h-248.938c-30.453 0-53.418-24.52-53.418-57.034 0-0.283 0.010-0.566 0.031-0.848l0.42-5.708h-119.469c-0.186 0-0.37-0.005-0.557-0.013-18.009-0.868-34.467-8.621-46.34-21.832-11.891-13.231-17.857-30.488-16.8-48.54l16.865-312.862c0.163-10.314 7.215-15.71 14.184-15.71 2.912 0 7.31 0.926 11.722 5.333 0.070 0.073 0.141 0.145 0.21 0.216l83.368 87.777c0.468 0.326 1.48 0.741 2.020 0.828h311.279c31.758 0.017 59.096 25.824 60.941 57.531 0.004 0.069 0.008 0.141 0.010 0.211l11.271 283.385c0.006 0.152 0.010 0.306 0.010 0.458 0 14.783-12.027 26.808-26.809 26.808z" />
<glyph unicode="&#xe028;" glyph-name="Photo" d="M404.527 337.8h53.75l2.965 52.103h-60.221zM370.725 226.074v-123.992h-123.927c-68.332 0-123.925 55.593-123.925 123.926s55.593 123.924 123.925 123.924c68.311 0 123.893-55.555 123.927-123.858zM471.451 101.922h-80.658v124.086c0 79.398-64.596 143.994-143.995 143.994-79.398 0-143.994-64.596-143.994-143.994s64.596-143.995 143.994-143.995h123.932v-46.899h-323.975c-1.938 0-3.191 2.459-3.404 4.806l-20.236 338.735c-0.396 8.704 2.837 17.113 9.105 23.687 6.391 6.701 15.151 10.544 24.034 10.544h429.242c1.809 0 3.295-1.665 3.418-3.765-4.199-60.028-14.855-258.35-17.463-307.199zM485.496 435.965h-429.242c-15.164 0-30.012-6.45-40.736-17.697-10.683-11.202-16.171-25.683-15.454-40.775 0.002-0.047 0.004-0.094 0.007-0.141l20.249-338.948c0.004-0.077 0.010-0.153 0.016-0.229 1.189-14.903 12.545-26.141 26.419-26.141h335.515c6.375 0 11.541 5.166 11.541 11.539v55.269h88.582c6.135 0 11.197 4.802 11.521 10.929 0.133 2.501 13.326 250.904 18.061 318.257 0.018 0.269 0.027 0.539 0.027 0.809 0 14.958-11.891 27.128-26.506 27.128zM246.799 168.55c-31.683 0-57.459 25.774-57.459 57.456 0 31.684 25.776 57.459 57.459 57.459 31.681 0 57.457-25.775 57.457-57.459 0-31.682-25.776-57.456-57.457-57.456zM246.799 303.534c-42.75 0-77.529-34.78-77.529-77.528 0-42.747 34.779-77.525 77.529-77.525 42.748 0 77.527 34.778 77.527 77.525 0 42.748-34.779 77.528-77.527 77.528z" />
<glyph unicode="&#xe029;" glyph-name="Packs" d="M425.806 322.251c-2.956-1.098-4.982-3.84-5.165-6.987l-11.135-191.456c-0.075-1.268-1.648-3.387-2.813-3.824l-150.721-55.877-153.328 56.881-11.329 194.288c-0.185 3.171-2.239 5.928-5.225 7.010l-55.063 19.957 110.379 40.971 82.681-29.918c0.157-0.069 0.318-0.135 0.48-0.195l13.882-5.14-133.884-49.623 151.405-56.146 151.42 56.146-133.888 49.62 13.904 5.142c0.181 0.066 0.357 0.14 0.531 0.219l82.674 30.576 110.611-41.044-55.416-20.6zM255.971 337.502l105.689-39.168-105.689-39.189-105.677 39.189 105.677 39.168zM506.818 350.307l-133.435 49.514c-1.78 0.661-3.739 0.662-5.521 0.003l-85.97-31.793c-0.18-0.068-0.357-0.142-0.531-0.22l-25.387-9.389-25.352 9.387c-0.192 0.087-0.389 0.168-0.59 0.24l-85.957 31.103c-1.768 0.641-3.706 0.632-5.47-0.021l-133.423-49.526c-3.126-1.16-5.195-4.147-5.182-7.481s2.105-6.306 5.239-7.441l70.512-25.557 11.327-194.247c0.184-3.148 2.213-5.891 5.17-6.988l160.959-59.713c0.893-0.33 1.829-0.496 2.765-0.496s1.871 0.166 2.764 0.496l153.524 56.916c7.034 2.652 12.673 10.295 13.114 17.785l10.834 186.281 70.614 26.247c3.114 1.157 5.18 4.129 5.179 7.452-0.001 3.321-2.068 6.293-5.183 7.448z" />
<glyph unicode="&#xe02b;" glyph-name="Overview" d="M488.924 22.202c0-12.898-4.705-21.637-14.381-26.715-7.943-4.168-16.391-4.4-16.799-4.408h-403.536c-12.9 0-21.639 4.703-26.717 14.379-4.254 8.102-4.409 16.727-4.41 16.744v403.595c0 12.897 4.704 21.636 14.379 26.714 8.104 4.252 16.73 4.408 16.748 4.409h403.59c12.898 0 21.637-4.704 26.717-14.379 4.254-8.103 4.408-16.728 4.408-16.744v-403.595zM505.451 452.289c-8.935 17.87-25.859 27.711-47.652 27.711h-403.591c-1.371 0-13.758-0.184-26.493-6.551-17.871-8.934-27.713-25.858-27.713-47.652v-403.595c0-1.371 0.184-13.76 6.552-26.494 8.935-17.869 25.861-27.709 47.655-27.709h403.59c1.369 0 13.758 0.184 26.494 6.551 17.869 8.934 27.709 25.857 27.709 47.652v403.595c0 1.37-0.184 13.758-6.551 26.492zM156.445 287.053h284.445v-20.069h-284.445v20.069zM156.445 392.683h284.445v-20.069h-284.445v20.069zM156.445 181.022h284.445v-20.068h-284.445v20.068zM156.445 74.985h284.445v-20.070h-284.445v20.070zM87.428 398.962c-9.010 0-16.316-7.306-16.316-16.321 0-9.008 7.306-16.314 16.316-16.314 9.012 0 16.316 7.306 16.316 16.314 0 9.015-7.304 16.321-16.316 16.321zM87.428 293.34c-9.010 0-16.316-7.307-16.316-16.323 0-9.007 7.306-16.312 16.316-16.312 9.012 0 16.316 7.305 16.316 16.312 0 9.017-7.304 16.323-16.316 16.323zM87.428 187.302c-9.010 0-16.316-7.305-16.316-16.322 0-9.006 7.306-16.313 16.316-16.313 9.012 0 16.316 7.307 16.316 16.313 0 9.017-7.304 16.322-16.316 16.322zM87.428 81.272c-9.010 0-16.316-7.307-16.316-16.322 0-9.008 7.306-16.314 16.316-16.314 9.012 0 16.316 7.307 16.316 16.314 0 9.016-7.304 16.322-16.316 16.322z" />
<glyph unicode="&#xe02c;" glyph-name="Outcomingcalls" d="M242.285 289.559h83.866l5.084 89.496h-88.95v-89.496zM345.832 268.73h-124.376v131.154h131.824l-7.448-131.154zM347.188 193.512h-34.157l1.912-33.798h30.25zM298.486 193.512h-34.154l1.912-33.798h30.248zM249.788 193.512h-34.155l1.912-33.798h30.248zM344.277 138.429h-34.158l1.914-33.798h30.248zM297.031 138.429h-34.154l1.912-33.798h30.248zM249.789 138.429h-34.156l1.912-33.798h30.248zM341.365 83.345h-34.156l1.914-33.798h30.248zM295.578 83.345h-34.158l1.914-33.798h30.248zM249.789 83.345h-34.156l1.912-33.798h30.248zM85.015 68.949h81.301l0.052 310.197-97.304-0.084 15.951-310.113zM48.28 377.613c-6.67-1.852-12.664-5.462-17.426-10.59-7.041-7.582-10.577-17.617-9.954-28.255l18.791-321.248v-0.304c0-1.761 1.465-3.427 3.015-3.427l288.423 0.089c16.961 0.009 32.123 14.323 33.105 31.258l22.395 385.98c-0.486 1.068-3.297 3.094-5.713 3.094l-286.724-0.146c-15.499 0-26.343-12.066-26.448-29.372l0.248-4.803 119.208 0.103-0.060-351.872h-121.911l-16.949 329.493zM42.71-7.040h-0.003c-13.034 0-23.66 10.694-23.842 23.911l-18.758 320.68c-0.958 16.362 4.542 31.863 15.485 43.647 8.495 9.147 19.463 15.189 31.602 17.551l-0.278 5.688c0 28.765 20.322 50.456 47.271 50.456l286.726 0.146c12.568 0 26.568-9.792 26.568-23.844l-0.018-0.603-22.436-386.662c-1.627-28.041-25.803-50.866-53.891-50.881l-288.426-0.089zM476.357 263.498c-0.295 0.296-0.613 0.559-0.936 0.8-1.523 1.166-3.373 1.801-5.311 1.801-4.883 0-8.852-3.99-8.852-8.9 0-2.073 0.699-4.033 1.992-5.614 0.188-0.235 0.385-0.46 0.596-0.673h0.014l0.006-0.012 17.804-18.008h-51.262c-2.736 0-5.193-1.263-6.814-3.246-1.264-1.532-2.020-3.502-2.020-5.647 0-0.614 0.061-1.21 0.182-1.79 0.283-1.402 0.902-2.684 1.762-3.763 0.023-0.038 0.051-0.069 0.076-0.102 0.109-0.133 0.225-0.257 0.34-0.378 0.078-0.089 0.148-0.177 0.229-0.257 0.072-0.072 0.148-0.134 0.225-0.203 0.133-0.127 0.264-0.257 0.408-0.372 0.025-0.022 0.057-0.038 0.086-0.062 1.291-1.051 2.881-1.745 4.625-1.926 0.295-0.028 0.596-0.043 0.902-0.043h51.264l-7.389-7.477-10.422-10.52v-0.018h-0.014c-1.67-1.69-2.588-3.913-2.588-6.3 0-4.904 3.957-8.889 8.836-8.889 0.971 0 1.918 0.163 2.816 0.47 1.273 0.429 2.445 1.14 3.424 2.119l33.076 33.2c1.668 1.687 2.588 3.931 2.588 6.308 0 2.375-0.92 4.619-2.588 6.288l-33.055 33.214z" />
<glyph unicode="&#xe02d;" glyph-name="Options" d="M468.719 48.563c0-27.109-22.055-49.171-49.17-49.171l-358.96-0.139c-4.816 0-8.739 3.938-8.739 8.77 0 0.355-0.015 0.716-0.049 1.070l-28.472 309.623c0.272 26.892 22.227 48.685 49.18 48.685h7.8l24.030-311.865h311.001l10.795 333.666h-325.464l-0.588 10.131c0 27.125 22.064 49.188 49.243 49.188l330.613 0.224c4.816 0 8.74-3.917 8.754-8.14l-19.974-392.042zM400.545 225.414h-130.918v143.506h135.563l-4.645-143.506zM269.627 205.133h130.262l-4.186-129.316h-126.076v129.316zM249.343 205.133v-129.316h-126.229l-9.962 129.316h136.191zM479.93 472.067l-330.658-0.223c-39.985 0-72.51-32.526-72.491-73.174l0.451-7.948h-4.724c-39.98 0-72.506-32.525-72.506-72.511 0-0.356 0.015-0.712 0.049-1.070l28.483-309.711c0.317-17.425 14.577-31.497 32.055-31.497l358.964 0.138c39.971 0 72.488 32.518 72.475 71.899l19.975 392.041c-0.001 17.677-14.386 32.056-32.073 32.056z" />
<glyph unicode="&#xe032;" glyph-name="Number-9" d="M277.069 219.354c6.432 3.603 12.102 7.912 16.939 12.933-0.34 17.374-3.527 30.174-9.537 38.363-6.022 8.196-16.14 12.297-30.357 12.297-12.038 0-21.235-3.226-27.598-9.651-6.356-6.451-9.531-15.018-9.531-25.727 0-10.526 2.929-18.772 8.788-24.693 5.84-5.947 15.056-8.914 27.592-8.914 9.366 0 17.267 1.782 23.704 5.392zM330.375 228.268c0-72.242-29.261-108.369-87.795-108.369-14.886 0-30.187 2.262-45.917 6.772l8.284 29.871c4.183-1.524 9.537-3.011 16.051-4.415 6.526-1.418 13.21-2.117 20.076-2.117 15.894 0 27.8 4.076 35.75 12.271 7.931 8.221 13.077 20.41 15.439 36.638-12.901-9.38-28.032-14.061-45.425-14.061-20.731 0-36.795 5.316-48.159 15.919-11.377 10.633-17.059 25.985-17.059 46.074 0 19.881 6.142 35.8 18.438 47.769 12.297 11.962 30.061 17.935 53.306 17.935 26.748 0 46.282-7.068 58.572-21.21 12.297-14.137 18.439-35.158 18.439-63.077zM512.001 224.016c0 141.359-114.618 255.984-256.003 255.984s-255.997-114.625-255.997-255.984c0-141.385 114.612-256.016 255.997-256.016s256.003 114.631 256.003 256.016z" />
<glyph unicode="&#xe033;" glyph-name="Number-8" d="M281.948 245.312c5.367 4.195 8.038 10.571 8.038 19.082 0 7.188-2.91 12.701-8.781 16.556-5.858 3.855-14.212 5.764-25.084 5.764s-19.226-1.909-25.084-5.764-8.781-9.368-8.781-16.556c0-8.511 2.671-14.887 8.025-19.082 5.342-4.177 13.884-6.269 25.601-6.269 12.018 0.001 20.724 2.093 26.066 6.269zM285.085 154.122c6.791 4.939 10.167 11.92 10.167 20.966 0 10.023-2.96 17.766-8.882 23.209-5.946 5.424-16.025 8.146-30.25 8.146-14.199 0-24.341-2.722-30.338-8.146-6.035-5.443-9.046-13.186-9.046-23.209 0-9.046 3.427-16.026 10.281-20.966 6.866-4.914 16.567-7.377 29.103-7.377 12.562 0 22.212 2.463 28.965 7.377zM297.76 223.237c11.213-3.83 19.527-9.714 24.958-17.689 5.442-7.932 8.164-18.012 8.164-30.214 0-17.74-6.501-31.418-19.453-41.019-12.964-9.62-31.383-14.407-55.308-14.407-23.9 0-42.407 4.787-55.447 14.407-13.027 9.601-19.553 23.278-19.553 41.019 0 24.424 11.049 40.395 33.122 47.903-18.419 7.692-27.617 21.496-27.617 41.403 0 15.561 6.022 27.524 18.066 35.896 12.044 8.334 29.191 12.512 51.428 12.512s39.396-4.177 51.428-12.512c12.044-8.373 18.079-20.336 18.079-35.896 0.001-19.907-9.31-33.71-27.867-41.403zM512.001 224c0 141.394-114.623 256-256.006 256s-255.994-114.606-255.994-256 114.611-256 255.994-256c141.383 0 256.006 114.606 256.006 256z" />
<glyph unicode="&#xe034;" glyph-name="Number-7" d="M322.97 279.69l-78.516-156.037h-38.375l78.528 156.037h-95.574v29.626h133.937v-29.626zM256.007 480c-141.395 0-256.006-114.606-256.006-255.991 0-141.384 114.611-256.009 256.006-256.009 141.383 0 255.994 114.625 255.994 256.009s-114.61 255.991-255.994 255.991z" />
<glyph unicode="&#xe035;" glyph-name="Number-6" d="M285.598 159.273c6.264 6.536 9.401 15.307 9.401 26.349 0 10.522-3.091 18.904-9.271 25.074-6.193 6.188-15.477 9.302-27.851 9.302-9.024 0-16.715-1.723-23.074-5.167-6.358-3.421-11.949-7.55-16.81-12.41v-0.236c0-17.907 2.973-31.167 8.918-39.778 5.922-8.606 16.255-12.906 30.965-12.906 12.21-0.001 21.458 3.261 27.722 9.772zM330.376 186.383c0-13.047-2.678-24.561-8.021-34.523-5.355-9.933-13.4-17.76-24.206-23.452-10.793-5.686-23.946-8.512-39.505-8.512-26.777 0-46.288 7.055-58.592 21.188-12.28 14.133-18.425 35.178-18.425 63.107 0 72.25 29.266 108.389 87.798 108.389 7.68 0 15.17-0.566 22.437-1.652 7.29-1.091 13.53-2.383 18.709-3.893l-8.045-28.59c-11.030 2.666-21.563 4.005-31.603 4.005-15.547 0-27.261-3.887-35.117-11.655-7.856-7.792-13.047-19.435-15.559-35.007 12.374 8.865 27.096 13.301 44.152 13.301 20.738 0 36.922-5.427 48.565-16.297 11.608-10.883 17.412-26.36 17.412-46.409zM512.001 224.009c0 141.373-114.611 255.991-256 255.991-141.377 0-256-114.618-256-255.991 0-141.396 114.623-256.009 256-256.009 141.389 0 256 114.612 256 256.009z" />
<glyph unicode="&#xe036;" glyph-name="Number-5" d="M318.462 151.881c-5.934-10.111-14.64-17.973-26.080-23.586-11.466-5.594-25.325-8.396-41.528-8.396-25.262 0-47.335 5.021-66.235 15.057l11.289 28.088c17.728-8.699 35.958-13.045 54.694-13.045 13.544 0 23.662 3.225 30.352 9.662 6.69 6.439 10.042 15.434 10.042 26.963 0 10.361-3.024 18.475-9.034 24.334-6.035 5.859-15.145 8.787-27.353 8.787-8.19 0-15.019-1.215-20.437-3.641-5.443-2.426-9.487-4.643-12.171-6.646-2.671-2.010-4.258-3.18-4.762-3.521h-30.365l14.552 103.369h113.898v-29.607h-84.050l-6.010-39.133c11.377 5.676 23.17 8.53 35.354 8.53 21.079 0 37.483-5.317 49.176-15.932 11.718-10.622 17.563-25.973 17.563-46.036 0-13.382-2.961-25.13-8.895-35.247zM255.995 480c-141.391 0-255.994-114.612-255.994-255.984 0-141.385 114.603-256.016 255.994-256.016s256.006 114.631 256.006 256.016c0 141.372-114.616 255.984-256.006 255.984z" />
<glyph unicode="&#xe037;" glyph-name="Number-4" d="M333.891 163.533h-25.065v-39.889h-35.636v39.889h-95.084v29.596l65.477 116.152h36.625l-64.223-116.152h57.206v48.683h35.636v-48.683h25.065v-29.596zM256.004 480c-141.385 0-256.003-114.621-256.003-255.997 0-141.388 114.618-256.003 256.003-256.003s255.997 114.615 255.997 256.003c0 141.376-114.612 255.997-255.997 255.997z" />
<glyph unicode="&#xe038;" glyph-name="Number-3" d="M308.188 136.312c-13.65-10.955-32.908-16.423-57.822-16.423-25.935 0-48.254 5.342-66.982 16.052l11.043 28.096c8.863-4.359 17.764-7.78 26.703-10.281 8.952-2.52 18.514-3.767 28.719-3.767 14.552 0 25.248 2.501 32.127 7.521 6.835 5.015 10.281 13.040 10.281 24.090 0 8.857-3.112 15.837-9.292 20.934-6.192 5.109-15.547 7.578-28.096 7.408l-30.099-0.245v29.091h21.065c14.375 0 24.807 1.474 31.232 4.391 6.451 2.929 9.65 8.819 9.65 17.683 0 6.533-2.821 11.831-8.51 15.938-5.708 4.101-15.226 6.136-28.619 6.136-9.185 0-17.765-1.040-25.702-3.131-7.931-2.092-16.189-4.889-24.7-8.397l-12.542 26.345c18.23 10.193 39.22 15.302 62.944 15.302 23.761 0 41.942-4.737 54.572-14.18 12.618-9.443 18.942-22.282 18.942-38.516 0-15.875-6.35-27.838-19.056-35.863 7.673-4.517 13.714-10.414 18.048-17.689 4.359-7.276 6.526-15.674 6.526-25.205 0.004-19.241-6.806-34.334-20.432-45.29zM256.004 480c-141.385 0-256.003-114.621-256.003-255.997 0-141.388 114.618-256.003 256.003-256.003s255.997 114.615 255.997 256.003c0 141.376-114.612 255.997-255.997 255.997z" />
<glyph unicode="&#xe039;" glyph-name="Number-2" d="M323.473 153.252v-29.607h-135.97v15.56c0 15.882 4.309 29.722 12.927 41.515 8.605 11.793 19.686 22.785 33.236 32.991 5.689 4.183 12.537 8.693 20.575 13.544 11.534 7.030 20.077 13.084 25.596 18.193 5.512 5.097 8.271 10.917 8.271 17.431 0 6.684-2.847 11.793-8.542 15.302-5.676 3.509-13.79 5.26-24.329 5.26-9.538 0-18.193-1.122-25.96-3.376-7.78-2.249-16.19-5.651-25.205-10.168l-12.555 26.345c10.873 6.18 21.532 10.539 31.996 13.046 10.451 2.514 21.778 3.78 33.98 3.78 15.396 0 28.064-2.236 38.024-6.671 9.934-4.429 17.248-10.287 21.941-17.557 4.687-7.27 7.036-15.434 7.036-24.443 0-9.040-2.438-17.286-7.295-24.732-4.851-7.44-10.395-13.658-16.682-18.679-6.268-5.021-13.827-10.362-22.703-16.063-1.329-0.838-3.925-2.501-7.78-5.002l-7.509-5.279c-11.226-7.521-19.793-14.294-25.728-20.322-5.935-6.022-8.901-13.040-8.901-21.066h95.577zM255.998 480c-141.389 0-255.997-114.621-255.997-256.009 0-141.376 114.608-255.991 255.997-255.991 141.388 0 256.003 114.615 256.003 255.991 0 141.388-114.615 256.009-256.003 256.009z" />
<glyph unicode="&#xe03a;" glyph-name="Number-1" d="M318.974 123.645h-121.17v29.595h45.154v120.164l-41.387-10.785-8.523 28.613 59.952 18.067h25.582v-156.059h40.393v-29.595zM256.004 480c-141.385 0-256.003-114.621-256.003-255.997 0-141.388 114.618-256.003 256.003-256.003s255.997 114.615 255.997 256.003c0 141.376-114.612 255.997-255.997 255.997z" />
<glyph unicode="&#xe03c;" glyph-name="Newsletter" d="M488.674 386.541l-17.132-295.672c-0.012-0.225-0.019-0.449-0.019-0.674 0-4.973-1.227-9.656-3.356-13.809l-140.9 111.359 126.16 148.275c2.946 3.463 3.611 8.322 1.705 12.449-1.908 4.128-6.041 6.77-10.586 6.77h-367.973l-0.151 2.757c0.16 16.678 13.819 30.194 30.597 30.194l379.155 0.244c0.911 0 1.664-0.454 2.065-0.88 0.466-0.492 0.443-0.858 0.435-1.013zM53.991 331.916h6.080l119.553-143.715-143.174-112.258-13.084 226.015c-0.415 7.121 2.325 14.186 7.713 19.899 6.031 6.393 14.383 10.059 22.912 10.059zM90.41 331.916h328.901l-166.307-195.457-162.594 195.457zM53.364 59.568l141.181 110.695 49.394-59.377c2.201-2.646 5.459-4.184 8.9-4.203h0.065c3.417 0 6.666 1.5 8.88 4.104l50.358 59.184 137.806-108.912c-2.866-0.887-5.91-1.365-9.064-1.365l-387.52-0.126zM505.212 403.552c-4.913 5.216-11.854 8.208-19.046 8.208l-379.156-0.244c-29.729 0-53.914-24.142-53.914-53.815 0-0.215 0.006-0.429 0.018-0.644l0.103-1.822c-14.652-0.216-28.865-6.521-39.104-17.372-9.84-10.434-14.824-23.667-14.029-37.259l13.83-238.927c0.067-4.588 1.354-8.879 3.521-12.594 0.271-0.533 0.6-1.049 0.96-1.549 0.051-0.074 0.102-0.145 0.153-0.219 0.037-0.047 0.066-0.098 0.104-0.145 0.018-0.023 0.039-0.043 0.057-0.066 4.68-6.564 12.336-10.863 20.986-10.863l401.192 0.129c13.966 0 26.706 5.324 36.298 14.037 0.837 0.613 1.614 1.33 2.288 2.182 0.035 0.045 0.062 0.092 0.097 0.137 9.367 9.619 15.181 22.699 15.277 37.113l17.11 295.338c0.403 6.804-1.991 13.332-6.745 18.375z" />
</font>
</defs>
</svg>
